<svg width="29" height="29" viewBox="0 0 29 29" fill="none" xmlns="http://www.w3.org/2000/svg">
<path d="M26.5827 20.2275V5.64288C26.5827 4.19288 25.3985 3.11746 23.9606 3.2383H23.8881C21.3506 3.4558 17.496 4.74871 15.3452 6.10205L15.1398 6.23496C14.7893 6.45246 14.2093 6.45246 13.8589 6.23496L13.5568 6.05371C11.406 4.71246 7.56352 3.43163 5.02602 3.22621C3.5881 3.10538 2.41602 4.19288 2.41602 5.6308V20.2275C2.41602 21.3875 3.35852 22.475 4.51852 22.62L4.86893 22.6683C7.49102 23.0187 11.5389 24.3479 13.8589 25.6166L13.9073 25.6408C14.2335 25.822 14.7531 25.822 15.0673 25.6408C17.3873 24.36 21.4473 23.0187 24.0814 22.6683L24.4802 22.62C25.6402 22.475 26.5827 21.3875 26.5827 20.2275Z" stroke="#56E5A1" stroke-width="1.5" stroke-linecap="round" stroke-linejoin="round"/>
<path d="M14.5 6.63379V24.7588" stroke="#56E5A1" stroke-width="1.5" stroke-linecap="round" stroke-linejoin="round"/>
<path d="M9.36523 10.2588H6.64648" stroke="#56E5A1" stroke-width="1.5" stroke-linecap="round" stroke-linejoin="round"/>
<path d="M10.2715 13.8838H6.64648" stroke="#56E5A1" stroke-width="1.5" stroke-linecap="round" stroke-linejoin="round"/>
</svg>
