<svg width="29" height="29" viewBox="0 0 29 29" fill="none" xmlns="http://www.w3.org/2000/svg">
<path d="M26.3537 4.76081C24.4928 9.40081 19.8287 15.7083 15.9258 18.8379L13.5453 20.7471C13.2433 20.9646 12.9412 21.1579 12.6028 21.2908C12.6028 21.0733 12.5908 20.8316 12.5545 20.6021C12.4216 19.5871 11.9624 18.6446 11.1528 17.835C10.3312 17.0133 9.32825 16.53 8.30117 16.3971C8.05951 16.385 7.81784 16.3608 7.57617 16.385C7.70909 16.0104 7.91451 15.66 8.16826 15.37L10.0533 12.9896C13.1708 9.08664 19.5024 4.39831 24.1303 2.54956C24.8433 2.28372 25.532 2.47706 25.967 2.92414C26.4262 3.37122 26.6437 4.05997 26.3537 4.76081Z" stroke="#56E5A1" stroke-width="1.5" stroke-linecap="round" stroke-linejoin="round"/>
<path d="M12.6027 21.2908C12.6027 22.62 12.0952 23.8888 11.1406 24.8554C10.4036 25.5925 9.40063 26.1 8.20438 26.2571L5.23188 26.5833C3.61272 26.7646 2.22314 25.3871 2.41647 23.7438L2.74272 20.7713C3.03272 18.125 5.24397 16.4333 7.58813 16.385C7.8298 16.3729 8.08355 16.385 8.31313 16.3971C9.34022 16.53 10.3431 17.0013 11.1648 17.835C11.9744 18.6446 12.4335 19.5871 12.5665 20.6021C12.5785 20.8317 12.6027 21.0613 12.6027 21.2908Z" stroke="#56E5A1" stroke-width="1.5" stroke-linecap="round" stroke-linejoin="round"/>
<path d="M17.2076 17.4846C17.2076 14.3308 14.6459 11.7692 11.4922 11.7692" stroke="#56E5A1" stroke-width="1.5" stroke-linecap="round" stroke-linejoin="round"/>
</svg>
