<svg width="24" height="25" viewBox="0 0 24 25" fill="none" xmlns="http://www.w3.org/2000/svg">
<path d="M6.76017 22.5H17.2402C20.0002 22.5 21.1002 20.81 21.2302 18.75L21.7502 10.49C21.8902 8.33 20.1702 6.5 18.0002 6.5C17.3902 6.5 16.8302 6.15 16.5502 5.61L15.8302 4.16C15.3702 3.25 14.1702 2.5 13.1502 2.5H10.8602C9.83017 2.5 8.63017 3.25 8.17017 4.16L7.45017 5.61C7.17017 6.15 6.61017 6.5 6.00017 6.5C3.83017 6.5 2.11017 8.33 2.25017 10.49L2.77017 18.75C2.89017 20.81 4.00017 22.5 6.76017 22.5Z" stroke="#56E5A1" stroke-width="1.5" stroke-linecap="round" stroke-linejoin="round"/>
<path d="M10.5 8.5H13.5" stroke="#56E5A1" stroke-width="1.5" stroke-linecap="round" stroke-linejoin="round"/>
<path d="M12 18.5C13.79 18.5 15.25 17.04 15.25 15.25C15.25 13.46 13.79 12 12 12C10.21 12 8.75 13.46 8.75 15.25C8.75 17.04 10.21 18.5 12 18.5Z" stroke="#56E5A1" stroke-width="1.5" stroke-linecap="round" stroke-linejoin="round"/>
</svg>
