<svg width="23" height="25" viewBox="0 0 23 25" fill="none" xmlns="http://www.w3.org/2000/svg">
<path d="M0.904839 19.3874L10.5951 24.7675C10.8704 24.9198 11.1824 25 11.4999 25C11.8175 25 12.1295 24.9198 12.4048 24.7675L22.0952 19.3873C22.3699 19.2342 22.5981 19.0144 22.7568 18.7499C22.9156 18.4855 22.9995 18.1856 23 17.8802V7.1198C22.9995 6.81441 22.9156 6.5145 22.7569 6.25003C22.5981 5.98556 22.3699 5.76577 22.0952 5.61264L12.4048 0.232436C12.1296 0.0801483 11.8176 0 11.5 0C11.1824 0 10.8704 0.0801483 10.5952 0.232436L0.904839 5.61264C0.630078 5.76577 0.401909 5.98554 0.243128 6.25002C0.0843466 6.5145 0.000512121 6.81441 0 7.1198V17.8802C0.000512121 18.1856 0.0843466 18.4855 0.243128 18.75C0.401909 19.0145 0.630078 19.2343 0.904839 19.3874ZM12.4048 2.242L21.1903 7.1198V16.7664L12.4048 11.9911V2.242ZM11.4971 13.4967L20.3846 18.3276L11.5002 23.2603L2.6125 18.326L11.4971 13.4967ZM1.80968 7.1198L10.5951 2.242V11.9877L1.80968 16.7632V7.1198Z" fill="#56E5A1"/>
</svg>
