<svg width="29" height="29" viewBox="0 0 29 29" fill="none" xmlns="http://www.w3.org/2000/svg">
<path d="M20.7598 21.75C23.6598 21.75 24.3848 20.1188 24.3848 18.125V10.875C24.3848 8.88125 23.6598 7.25 20.7598 7.25C17.8598 7.25 17.1348 8.88125 17.1348 10.875V18.125C17.1348 20.1188 17.8598 21.75 20.7598 21.75Z" stroke="#56E5A1" stroke-width="1.5" stroke-linecap="round" stroke-linejoin="round"/>
<path d="M8.24023 21.75C5.34023 21.75 4.61523 20.1188 4.61523 18.125V10.875C4.61523 8.88125 5.34023 7.25 8.24023 7.25C11.1402 7.25 11.8652 8.88125 11.8652 10.875V18.125C11.8652 20.1188 11.1402 21.75 8.24023 21.75Z" stroke="#56E5A1" stroke-width="1.5" stroke-linecap="round" stroke-linejoin="round"/>
<path d="M11.8652 14.5H17.1336" stroke="#56E5A1" stroke-width="1.5" stroke-linecap="round" stroke-linejoin="round"/>
<path d="M27.1875 17.5208V11.4791" stroke="#56E5A1" stroke-width="1.5" stroke-linecap="round" stroke-linejoin="round"/>
<path d="M1.8125 17.5208V11.4791" stroke="#56E5A1" stroke-width="1.5" stroke-linecap="round" stroke-linejoin="round"/>
</svg>
