<svg width="29" height="29" viewBox="0 0 29 29" fill="none" xmlns="http://www.w3.org/2000/svg">
<path d="M24.4688 4.53125H4.53125C4.05055 4.53125 3.58953 4.72221 3.24962 5.06212C2.90971 5.40203 2.71875 5.86305 2.71875 6.34375V22.6562C2.71875 23.137 2.90971 23.598 3.24962 23.9379C3.58953 24.2778 4.05055 24.4688 4.53125 24.4688H24.4688C24.9495 24.4688 25.4105 24.2778 25.7504 23.9379C26.0903 23.598 26.2812 23.137 26.2812 22.6562V6.34375C26.2812 5.86305 26.0903 5.40203 25.7504 5.06212C25.4105 4.72221 24.9495 4.53125 24.4688 4.53125ZM24.4688 6.34375V17.9834L21.5155 15.0313C21.3472 14.8629 21.1474 14.7294 20.9274 14.6383C20.7075 14.5472 20.4718 14.5003 20.2337 14.5003C19.9957 14.5003 19.76 14.5472 19.54 14.6383C19.3201 14.7294 19.1203 14.8629 18.952 15.0313L16.6863 17.2969L11.702 12.3125C11.3621 11.9729 10.9012 11.7821 10.4207 11.7821C9.94024 11.7821 9.47941 11.9729 9.13953 12.3125L4.53125 16.9208V6.34375H24.4688ZM4.53125 19.4844L10.4219 13.5938L19.4844 22.6562H4.53125V19.4844ZM24.4688 22.6562H22.0479L17.9698 18.5781L20.2354 16.3125L24.4688 20.547V22.6562ZM16.3125 11.3281C16.3125 11.0593 16.3922 10.7964 16.5416 10.5729C16.691 10.3493 16.9033 10.1751 17.1517 10.0722C17.4001 9.96934 17.6734 9.94242 17.9371 9.99487C18.2008 10.0473 18.443 10.1768 18.6331 10.3669C18.8232 10.557 18.9527 10.7992 19.0051 11.0629C19.0576 11.3266 19.0307 11.5999 18.9278 11.8483C18.8249 12.0967 18.6507 12.309 18.4271 12.4584C18.2036 12.6078 17.9407 12.6875 17.6719 12.6875C17.3113 12.6875 16.9656 12.5443 16.7107 12.2893C16.4557 12.0344 16.3125 11.6887 16.3125 11.3281Z" fill="#56E5A1"/>
</svg>
