<svg width="39" height="25" viewBox="0 0 39 25" fill="none" xmlns="http://www.w3.org/2000/svg">
<path d="M35.5982 3.57676C36.6339 4.61243 37.4233 5.78704 37.9664 7.10059C38.5095 8.41413 38.7874 9.80977 38.8 11.2875C38.8 11.7296 38.7874 12.26 38.7621 12.8789C38.7369 13.4978 38.6863 14.1672 38.6105 14.8871C38.5348 15.607 38.4148 16.3459 38.2506 17.1037C38.0864 17.8615 37.878 18.613 37.6254 19.3582C37.2465 20.4444 36.8044 21.3285 36.2992 22.0105C35.794 22.6926 35.2699 23.2294 34.7268 23.6209C34.1837 24.0124 33.6342 24.2777 33.0785 24.4166C32.5228 24.5555 32.005 24.625 31.525 24.625C31.1082 24.625 30.7293 24.5555 30.3883 24.4166C30.0473 24.2777 29.7189 24.0882 29.4031 23.8482C29.0874 23.6083 28.7969 23.3493 28.5316 23.0715C28.2664 22.7936 27.9949 22.4905 27.717 22.1621C27.4518 21.859 27.1928 21.5685 26.9402 21.2906C26.6876 21.0128 26.4161 20.7665 26.1256 20.5518C25.8351 20.337 25.5446 20.1539 25.2541 20.0023C24.9636 19.8508 24.6226 19.775 24.2311 19.775H14.5689C14.2027 19.7876 13.868 19.8634 13.5648 20.0023C13.2617 20.1413 12.9649 20.3181 12.6744 20.5328C12.3839 20.7475 12.1187 21.0001 11.8787 21.2906C11.6387 21.5811 11.3735 21.8716 11.083 22.1621C10.8178 22.4652 10.5525 22.762 10.2873 23.0525C10.0221 23.343 9.73158 23.6083 9.41582 23.8482C9.10007 24.0882 8.77168 24.2714 8.43067 24.3977C8.08965 24.524 7.70443 24.5997 7.275 24.625C6.79505 24.625 6.27721 24.5555 5.72148 24.4166C5.16576 24.2777 4.61634 24.0187 4.07324 23.6398C3.53014 23.2609 3.00599 22.7242 2.50078 22.0295C1.99557 21.3348 1.55352 20.4444 1.17461 19.3582C0.922005 18.6257 0.719922 17.8805 0.568359 17.1227C0.416797 16.3648 0.29681 15.6197 0.208398 14.8871C0.119987 14.1546 0.063151 13.4852 0.0378906 12.8789C0.0126302 12.2727 0 11.7422 0 11.2875C0 9.8224 0.27155 8.43307 0.814649 7.11953C1.35775 5.80599 2.15345 4.62506 3.20176 3.57676C4.2248 2.54108 5.39941 1.75169 6.72559 1.20859C8.05176 0.665495 9.4474 0.38763 10.9125 0.375H27.8875C29.3526 0.375 30.7419 0.646549 32.0555 1.18965C33.369 1.73275 34.5499 2.52845 35.5982 3.57676ZM35.333 18.5625C35.573 17.8931 35.7624 17.1984 35.9014 16.4785C36.0403 15.7586 36.1413 15.0702 36.2045 14.4135C36.2676 13.7567 36.3119 13.1505 36.3371 12.5947C36.3624 12.039 36.375 11.6033 36.375 11.2875C36.375 10.1129 36.154 9.01406 35.7119 7.99102C35.2699 6.96797 34.6636 6.07122 33.8932 5.30078C33.1227 4.53034 32.226 3.92409 31.2029 3.48203C30.1799 3.03997 29.0747 2.81263 27.8875 2.8H10.9125C9.73789 2.8 8.63906 3.02103 7.61602 3.46309C6.59297 3.90514 5.69622 4.51139 4.92578 5.28184C4.15534 6.05228 3.54909 6.94902 3.10703 7.97207C2.66497 8.99512 2.43763 10.1003 2.425 11.2875C2.425 11.6159 2.43132 12.0516 2.44395 12.5947C2.45658 13.1378 2.50078 13.7378 2.57656 14.3945C2.65234 15.0513 2.7597 15.746 2.89863 16.4785C3.03757 17.2111 3.22702 17.9057 3.46699 18.5625C3.78275 19.4719 4.13008 20.1729 4.50898 20.6654C4.88789 21.158 5.25417 21.518 5.60781 21.7453C5.96146 21.9727 6.28984 22.1053 6.59297 22.1432C6.89609 22.1811 7.12344 22.2 7.275 22.2C7.55287 22.2 7.85599 22.0358 8.18438 21.7074C8.51276 21.379 8.86641 21.0001 9.24531 20.5707C9.54844 20.2171 9.87051 19.8571 10.2115 19.4908C10.5525 19.1245 10.9378 18.7835 11.3672 18.4678C11.7966 18.152 12.2702 17.8931 12.7881 17.691C13.3059 17.4889 13.8806 17.3753 14.5121 17.35H24.2879C24.9194 17.3753 25.4941 17.4889 26.0119 17.691C26.5298 17.8931 26.9971 18.1457 27.4139 18.4488C27.8307 18.752 28.2159 19.093 28.5695 19.4719C28.9232 19.8508 29.2516 20.2171 29.5547 20.5707C29.921 20.9875 30.2683 21.3601 30.5967 21.6885C30.9251 22.0169 31.2345 22.1874 31.525 22.2C31.6766 22.2 31.8976 22.1811 32.1881 22.1432C32.4786 22.1053 32.807 21.9727 33.1732 21.7453C33.5395 21.518 33.9121 21.158 34.291 20.6654C34.6699 20.1729 35.0173 19.4719 35.333 18.5625ZM9.7 10.075H12.125V12.5H9.7V14.925H7.275V12.5H4.85V10.075H7.275V7.65H9.7V10.075ZM31.525 12.5C31.866 12.5 32.1818 12.5632 32.4723 12.6895C32.7628 12.8158 33.0154 12.9863 33.2301 13.201C33.4448 13.4157 33.6216 13.6746 33.7605 13.9777C33.8995 14.2809 33.9626 14.5966 33.95 14.925C33.95 15.266 33.8869 15.5818 33.7605 15.8723C33.6342 16.1628 33.4637 16.4154 33.249 16.6301C33.0343 16.8448 32.7754 17.0216 32.4723 17.1605C32.1691 17.2995 31.8534 17.3626 31.525 17.35C31.184 17.35 30.8682 17.2868 30.5777 17.1605C30.2872 17.0342 30.0346 16.8637 29.8199 16.649C29.6052 16.4343 29.4284 16.1754 29.2895 15.8723C29.1505 15.5691 29.0874 15.2534 29.1 14.925C29.1 14.584 29.1632 14.2682 29.2895 13.9777C29.4158 13.6872 29.5863 13.4346 29.801 13.2199C30.0157 13.0052 30.2746 12.8284 30.5777 12.6895C30.8809 12.5505 31.1966 12.4874 31.525 12.5ZM26.675 7.65C27.016 7.65 27.3318 7.71315 27.6223 7.83945C27.9128 7.96575 28.1654 8.13626 28.3801 8.35098C28.5948 8.56569 28.7716 8.82461 28.9105 9.12773C29.0495 9.43086 29.1126 9.74661 29.1 10.075C29.1 10.416 29.0369 10.7318 28.9105 11.0223C28.7842 11.3128 28.6137 11.5654 28.399 11.7801C28.1843 11.9948 27.9254 12.1716 27.6223 12.3105C27.3191 12.4495 27.0034 12.5126 26.675 12.5C26.334 12.5 26.0182 12.4368 25.7277 12.3105C25.4372 12.1842 25.1846 12.0137 24.9699 11.799C24.7552 11.5843 24.5784 11.3254 24.4395 11.0223C24.3005 10.7191 24.2374 10.4034 24.25 10.075C24.25 9.73398 24.3132 9.41823 24.4395 9.12773C24.5658 8.83724 24.7363 8.58463 24.951 8.36992C25.1657 8.15521 25.4246 7.97839 25.7277 7.83945C26.0309 7.70052 26.3466 7.63737 26.675 7.65Z" fill="#56E5A1"/>
</svg>
