<svg width="29" height="29" viewBox="0 0 29 29" fill="none" xmlns="http://www.w3.org/2000/svg">
<path d="M20.9518 6.59758C20.6651 6.59758 20.3847 6.68262 20.1463 6.84195C19.9078 7.00128 19.722 7.22774 19.6122 7.49269C19.5025 7.75764 19.4738 8.04919 19.5297 8.33046C19.5857 8.61173 19.7238 8.8701 19.9265 9.07289C20.1293 9.27567 20.3877 9.41377 20.669 9.46972C20.9502 9.52567 21.2418 9.49695 21.5067 9.38721C21.7717 9.27746 21.9981 9.09161 22.1575 8.85316C22.3168 8.61471 22.4018 8.33436 22.4018 8.04758C22.4018 7.66302 22.2491 7.2942 21.9772 7.02228C21.7052 6.75035 21.3364 6.59758 20.9518 6.59758ZM26.5102 9.52175C26.4867 8.51919 26.2989 7.52728 25.9543 6.5855C25.6471 5.7797 25.1689 5.05004 24.5527 4.44675C23.9543 3.82739 23.223 3.35221 22.4139 3.05716C21.4746 2.70211 20.4816 2.51004 19.4777 2.48925C18.1968 2.41675 17.786 2.41675 14.4993 2.41675C11.2127 2.41675 10.8018 2.41675 9.52102 2.48925C8.51707 2.51004 7.52406 2.70211 6.58476 3.05716C5.77721 3.3552 5.04648 3.82997 4.44602 4.44675C3.82666 5.04509 3.35148 5.77645 3.05643 6.5855C2.70138 7.52479 2.50931 8.51781 2.48852 9.52175C2.41602 10.8026 2.41602 11.2134 2.41602 14.5001C2.41602 17.7867 2.41602 18.1976 2.48852 19.4784C2.50931 20.4824 2.70138 21.4754 3.05643 22.4147C3.35148 23.2237 3.82666 23.9551 4.44602 24.5534C5.04648 25.1702 5.77721 25.645 6.58476 25.943C7.52406 26.2981 8.51707 26.4901 9.52102 26.5109C10.8018 26.5834 11.2127 26.5834 14.4993 26.5834C17.786 26.5834 18.1968 26.5834 19.4777 26.5109C20.4816 26.4901 21.4746 26.2981 22.4139 25.943C23.223 25.6479 23.9543 25.1728 24.5527 24.5534C25.1716 23.9524 25.6503 23.2221 25.9543 22.4147C26.2989 21.4729 26.4867 20.481 26.5102 19.4784C26.5102 18.1976 26.5827 17.7867 26.5827 14.5001C26.5827 11.2134 26.5827 10.8026 26.5102 9.52175ZM24.3352 19.3334C24.3264 20.1004 24.1875 20.8604 23.9243 21.5809C23.7314 22.1068 23.4215 22.5819 23.0181 22.9705C22.6262 23.3699 22.152 23.6791 21.6285 23.8767C20.908 24.1399 20.148 24.2788 19.381 24.2876C18.1727 24.348 17.7256 24.3601 14.5477 24.3601C11.3698 24.3601 10.9227 24.3601 9.71435 24.2876C8.91792 24.3025 8.1249 24.1799 7.37018 23.9251C6.86967 23.7173 6.41724 23.4089 6.04102 23.0188C5.63996 22.6306 5.33395 22.1551 5.14685 21.6292C4.85184 20.8984 4.68822 20.1212 4.66352 19.3334C4.66352 18.1251 4.59102 17.678 4.59102 14.5001C4.59102 11.3222 4.59102 10.8751 4.66352 9.66675C4.66893 8.88261 4.81208 8.10551 5.08643 7.37091C5.29916 6.86089 5.62567 6.40625 6.04102 6.04175C6.40812 5.62628 6.86182 5.29632 7.37018 5.07508C8.10672 4.8093 8.88301 4.67039 9.66602 4.66425C10.8743 4.66425 11.3214 4.59175 14.4993 4.59175C17.6773 4.59175 18.1243 4.59175 19.3327 4.66425C20.0997 4.67305 20.8597 4.81196 21.5802 5.07508C22.1293 5.27887 22.6221 5.61019 23.0181 6.04175C23.4141 6.41292 23.7235 6.86672 23.9243 7.37091C24.1929 8.10671 24.3319 8.88348 24.3352 9.66675C24.3956 10.8751 24.4077 11.3222 24.4077 14.5001C24.4077 17.678 24.3956 18.1251 24.3352 19.3334ZM14.4993 8.30133C13.2739 8.30372 12.0766 8.6693 11.0588 9.35188C10.041 10.0345 9.24839 11.0034 8.78107 12.1363C8.31376 13.2692 8.19272 14.5151 8.43327 15.7168C8.67381 16.9184 9.26513 18.0218 10.1325 18.8875C10.9999 19.7532 12.1044 20.3424 13.3066 20.5806C14.5087 20.8188 15.7544 20.6953 16.8864 20.2258C18.0183 19.7563 18.9857 18.9618 19.6663 17.9427C20.3469 16.9235 20.7102 15.7256 20.7102 14.5001C20.7118 13.6846 20.5521 12.8768 20.2404 12.1232C19.9287 11.3697 19.4711 10.6851 18.8939 10.1091C18.3167 9.53298 17.6313 9.07669 16.8771 8.76645C16.1229 8.45622 15.3148 8.29814 14.4993 8.30133ZM14.4993 18.5238C13.7035 18.5238 12.9256 18.2878 12.2639 17.8457C11.6022 17.4036 11.0864 16.7751 10.7819 16.0399C10.4773 15.3047 10.3977 14.4956 10.5529 13.7151C10.7082 12.9346 11.0914 12.2176 11.6541 11.6549C12.2169 11.0921 12.9338 10.7089 13.7144 10.5536C14.4949 10.3984 15.3039 10.4781 16.0392 10.7826C16.7744 11.0872 17.4028 11.6029 17.845 12.2646C18.2871 12.9263 18.5231 13.7043 18.5231 14.5001C18.5231 15.0285 18.419 15.5517 18.2168 16.0399C18.0146 16.5281 17.7182 16.9717 17.3446 17.3453C16.9709 17.7189 16.5274 18.0153 16.0392 18.2175C15.551 18.4198 15.0278 18.5238 14.4993 18.5238Z" fill="#56E5A1"/>
</svg>
