<svg width="29" height="29" viewBox="0 0 29 29" fill="none" xmlns="http://www.w3.org/2000/svg">
<path d="M23.9134 18.0404C21.4243 20.5175 17.8597 21.2787 14.7301 20.3L9.03886 25.9792C8.62802 26.4021 7.81844 26.6558 7.23844 26.5712L4.60427 26.2088C3.73427 26.0879 2.92469 25.2663 2.79177 24.3963L2.42927 21.7621C2.34469 21.1821 2.62261 20.3725 3.02136 19.9617L8.70052 14.2825C7.73386 11.1408 8.48302 7.57625 10.9722 5.09917C14.5368 1.53458 20.3247 1.53458 23.9014 5.09917C27.478 8.66375 27.478 14.4758 23.9134 18.0404Z" stroke="#56E5A1" stroke-width="1.5" stroke-miterlimit="10" stroke-linecap="round" stroke-linejoin="round"/>
<path d="M8.32617 21.1338L11.1053 23.9129" stroke="#56E5A1" stroke-width="1.5" stroke-miterlimit="10" stroke-linecap="round" stroke-linejoin="round"/>
<path d="M17.5215 13.2917C18.5225 13.2917 19.334 12.4802 19.334 11.4792C19.334 10.4782 18.5225 9.66667 17.5215 9.66667C16.5205 9.66667 15.709 10.4782 15.709 11.4792C15.709 12.4802 16.5205 13.2917 17.5215 13.2917Z" stroke="#56E5A1" stroke-width="1.5" stroke-linecap="round" stroke-linejoin="round"/>
</svg>
