<svg width="19" height="25" viewBox="0 0 19 25" fill="none" xmlns="http://www.w3.org/2000/svg">
<g clip-path="url(#clip0_2895_3499)">
<path d="M7.66171 15.3031L6.77505 14.2216V15.6201V19.3555C6.77505 20.6716 6.40142 21.5517 5.86618 22.101C5.33053 22.6508 4.57624 22.9277 3.69926 22.9277C2.60441 22.9277 1.82551 22.5394 1.31231 21.9343C0.789555 21.3179 0.5 20.4254 0.5 19.3555V5.53711C0.5 4.52747 0.795894 3.65759 1.32039 3.0484C1.83701 2.44836 2.60744 2.0625 3.64987 2.0625C4.55452 2.0625 5.32241 2.34719 5.864 2.89628C6.40453 3.4443 6.77505 4.31205 6.77505 5.58594V9.0332V10.6037L7.68302 9.32227L11.772 3.55139C11.7721 3.55129 11.7722 3.55119 11.7722 3.55109C13.1159 1.66107 15.3282 1.76671 16.6315 2.9999L16.6315 2.99992C17.8181 4.12263 17.8044 5.71688 17.0816 6.73133L17.0802 6.73327L13.3809 11.9774L13.1643 12.2845L13.3991 12.578L17.8836 18.1835L17.8858 18.1862C18.7017 19.1914 18.7134 20.8458 17.5563 22.0182C16.2109 23.3278 14.1142 23.1374 13.1959 22.0531L7.66171 15.3031Z" stroke="#56E5A1"/>
</g>
<defs>
<clipPath id="clip0_2895_3499">
<rect width="18.9655" height="25" fill="white"/>
</clipPath>
</defs>
</svg>
