<svg width="310" height="63" viewBox="0 0 310 63" fill="none" xmlns="http://www.w3.org/2000/svg">
<path d="M27.433 0.403851C15.8197 0.364982 -6.52227 26.9543 1.8245 33.9974L3.87422 35.731C3.321 37.2125 3.12543 38.8034 3.30341 40.3746C3.52136 42.5513 4.64741 44.6347 6.4688 46.2465C8.19679 47.7753 10.4696 48.7445 12.675 48.7445C16.323 57.1403 24.662 62.2918 34.4332 62.582C44.9153 62.8929 53.7187 57.9798 57.4056 49.1539C57.6469 48.532 58.6718 45.7437 58.6718 43.2794C58.6718 40.8021 57.2707 39.776 56.3756 39.776C56.3496 39.6801 56.1732 39.0349 55.9293 38.2575C55.688 37.4801 55.4363 36.9359 55.4363 36.9359C56.4093 35.477 56.4275 34.1762 56.2977 33.4377C56.1602 32.523 55.7788 31.7456 55.0108 30.9397C54.2428 30.1338 52.6705 29.3072 50.4625 28.6904L49.3053 28.3691C49.3002 28.3199 49.2431 25.6405 49.1938 24.4899C49.1575 23.6607 49.0848 22.3599 48.6826 21.0824C48.2001 19.3514 47.3646 17.8355 46.319 16.8663C49.2042 13.8812 51.0048 10.5902 50.9996 7.76831C50.9918 2.33955 44.316 0.696668 36.0911 4.09904L34.3476 4.83756C33.2834 3.79364 32.2179 2.75107 31.1511 1.70986C30.1236 0.815867 28.86 0.409034 27.433 0.403851ZM27.6224 2.66605C28.0531 2.66605 28.4579 2.71529 28.8289 2.81635C29.5995 3.03402 32.15 5.98809 32.15 5.98809C32.15 5.98809 27.4123 8.61307 23.017 12.2746C17.1014 16.8275 12.6257 23.4456 9.94814 30.6261C7.84393 31.0355 5.9888 32.2275 4.85497 33.873C4.17779 33.3081 2.91422 32.2146 2.69109 31.7896C0.880073 28.3536 4.66557 21.6784 7.31204 17.908C13.3367 9.31791 22.5111 2.6505 27.6224 2.66605ZM36.1482 11.1474C36.252 11.1422 36.3039 11.2769 36.2209 11.3391C35.8498 11.6242 35.4451 12.0129 35.1493 12.4119C35.1379 12.4271 35.1308 12.4452 35.129 12.4642C35.1272 12.4831 35.1306 12.5022 35.1389 12.5193C35.1472 12.5365 35.1601 12.551 35.1761 12.5613C35.1921 12.5716 35.2107 12.5773 35.2297 12.5778C36.9396 12.5881 39.3473 13.1867 40.9171 14.0652C41.0234 14.1248 40.9482 14.3321 40.8288 14.3036C38.4548 13.7594 34.5655 13.3474 30.5284 14.3295C26.9219 15.2105 24.1716 16.5658 22.1634 18.0247C22.0596 18.0972 21.9403 17.9651 22.0207 17.8692C24.3455 15.1872 27.2073 12.855 29.7707 11.5464C29.859 11.4998 29.9524 11.5957 29.9057 11.6812C29.7007 12.0517 29.3089 12.8395 29.1844 13.4381C29.1662 13.5288 29.2674 13.6013 29.3452 13.5469C30.9409 12.4586 33.7145 11.2977 36.1482 11.1474ZM43.9916 19.4525L44.1369 19.4551C44.5584 19.4716 44.9674 19.6024 45.3201 19.8334C46.7056 20.7533 46.9028 22.9844 46.9754 24.6143C47.0143 25.5472 47.1285 27.799 47.1674 28.4443C47.2556 29.9239 47.6448 30.1312 48.431 30.3903C48.8721 30.538 49.2872 30.6443 49.8917 30.8153C51.7235 31.3284 52.8106 31.8518 53.4982 32.5204C53.9055 32.9402 54.0949 33.3833 54.1546 33.8082C54.37 35.3837 52.93 37.3324 49.1159 39.0971C44.9464 41.0302 39.887 41.5199 36.3921 41.1312L35.1701 40.9939C32.3731 40.6182 30.7774 44.2252 32.4561 46.6973C33.5381 48.291 36.4829 49.3275 39.4304 49.3275C46.1867 49.3275 51.3784 46.4486 53.3114 43.9583C53.3671 43.8877 53.4191 43.8142 53.4671 43.7381C53.5605 43.5956 53.4826 43.5178 53.3633 43.5982C51.7858 44.6761 44.7752 48.9595 37.2769 47.6691C37.2769 47.6691 36.3662 47.5214 35.5333 47.1975C34.8717 46.9383 33.4888 46.3061 33.3201 44.8886C39.3733 46.7543 43.1821 44.9897 43.1821 44.9897C43.2174 44.9737 43.2469 44.9472 43.2664 44.9137C43.2859 44.8803 43.2946 44.8416 43.2911 44.8031C43.2888 44.7803 43.2821 44.7581 43.2712 44.7379C43.2603 44.7177 43.2455 44.6998 43.2276 44.6853C43.2097 44.6709 43.1892 44.6601 43.1671 44.6536C43.1451 44.6472 43.122 44.6451 43.0991 44.6476C43.0991 44.6476 38.1409 45.381 33.4524 43.6681C33.9636 42.0097 35.3205 42.6109 37.3703 42.7741C40.5593 42.9629 43.7576 42.6179 46.8327 41.7531C48.9551 41.1468 51.7417 39.947 53.9081 38.2393C54.6372 39.8408 54.8941 41.6054 54.8941 41.6054C54.8941 41.6054 55.4623 41.5018 55.9319 41.7946C56.3808 42.0693 56.7077 42.6394 56.4846 44.1138C56.0279 46.8684 54.8552 49.1046 52.8859 51.1621C51.6545 52.4916 50.1894 53.5843 48.5633 54.3857C47.6811 54.8521 46.7367 55.2512 45.743 55.5777C38.3147 58.0006 30.71 55.3367 28.2581 49.6177C28.0595 49.1803 27.8955 48.7281 27.7677 48.2651C26.7221 44.4947 27.612 39.9729 30.3831 37.1251C30.5517 36.9437 30.7255 36.7286 30.7255 36.4617C30.7255 36.2363 30.5828 35.9979 30.4609 35.832C29.4905 34.425 26.1305 32.0332 26.8051 27.4C27.2903 24.0727 30.204 21.7276 32.9206 21.8675C33.1515 21.8779 33.3798 21.8935 33.6107 21.9064C34.7861 21.9764 35.8161 22.1267 36.7839 22.1655C38.4055 22.2381 39.8637 22.0023 41.5917 20.5641C42.1754 20.0796 42.6425 19.6572 43.4338 19.525C43.5065 19.5121 43.6725 19.4525 43.9916 19.4525ZM44.0487 25.1015C43.9966 25.1021 43.9446 25.1064 43.893 25.1144C43.0239 25.2544 42.9927 26.3272 43.3015 27.8094C43.4779 28.6386 43.7867 29.3512 44.1317 29.7917C44.5858 29.7399 45.0217 29.7347 45.4239 29.7917C45.6548 29.2605 45.6937 28.3484 45.4861 27.3507C45.1955 25.9644 44.8089 25.0911 44.0487 25.1015ZM34.5526 29.1076C33.6065 29.1037 32.6836 29.3995 31.9165 29.9524C31.5013 30.2556 31.1095 30.6779 31.164 30.9319C31.1848 31.0148 31.2445 31.077 31.3924 31.0951C31.7322 31.134 32.9283 30.5328 34.3035 30.4473C35.2738 30.3877 36.0782 30.6909 36.6983 30.9656C37.3184 31.2351 37.6998 31.4139 37.8477 31.2584C37.9437 31.1599 37.9151 30.9734 37.7672 30.7298C37.4611 30.2322 36.8332 29.7269 36.1638 29.4419C35.6544 29.2243 35.1066 29.1106 34.5526 29.1076ZM45.1436 31.2066C44.7 31.1988 44.3315 31.6886 44.3211 32.2949C44.3108 32.9065 44.661 33.4092 45.1073 33.4144C45.5536 33.4221 45.922 32.935 45.9324 32.326C45.9428 31.7145 45.5899 31.2143 45.1436 31.2066ZM35.855 31.6523C35.7253 31.6523 35.5904 31.6575 35.4529 31.673C34.646 31.8026 34.1997 32.0669 33.9143 32.3131C33.6704 32.5255 33.5199 32.7613 33.5199 32.9272C33.5196 32.9529 33.5243 32.9785 33.534 33.0024C33.5436 33.0262 33.5579 33.048 33.576 33.0663C33.5941 33.0846 33.6157 33.0992 33.6394 33.1091C33.6632 33.119 33.6887 33.1241 33.7145 33.1241C33.8961 33.1241 34.3061 32.9609 34.3061 32.9609C35.1341 32.6491 36.0287 32.5563 36.9032 32.6914C37.3106 32.738 37.5 32.7614 37.5908 32.624C37.6168 32.5826 37.6479 32.497 37.5649 32.3649C37.4014 32.098 36.7605 31.6678 35.855 31.6523ZM41.7188 32.6888C41.3893 32.6888 41.1091 32.821 40.9845 33.0723C40.7899 33.4714 41.0753 34.0129 41.6228 34.2799C42.1676 34.5493 42.7722 34.4431 42.972 34.0466C43.1666 33.645 42.8812 33.1034 42.3337 32.8365C42.1428 32.7404 41.9325 32.6916 41.7188 32.6888ZM11.5308 32.751C11.6554 32.751 11.7851 32.751 11.9174 32.7588C13.8115 32.8624 16.6032 34.3135 17.2415 38.4337C17.8045 42.0874 16.9094 45.8008 13.482 46.3864C13.1628 46.4382 12.8385 46.4615 12.5116 46.4538C9.34619 46.3682 5.92394 43.5204 5.58405 40.144C5.20783 36.4125 7.11745 33.5413 10.4982 32.8598C10.8018 32.7976 11.152 32.7562 11.5308 32.751ZM11.3492 35.1531C10.9374 35.1495 10.5294 35.2315 10.1511 35.3939C9.77272 35.5562 9.43235 35.7955 9.1516 36.0963C8.16566 37.1795 8.01258 38.6565 8.20198 39.18C8.27204 39.3692 8.3836 39.4236 8.46144 39.4339C8.62749 39.4547 8.87657 39.3329 9.03225 38.9157C9.04797 38.8711 9.06268 38.8262 9.07636 38.7809C9.17072 38.4453 9.30761 38.1231 9.48371 37.8222C9.61232 37.6256 9.77848 37.4563 9.9727 37.324C10.1669 37.1916 10.3853 37.0989 10.6155 37.051C10.8457 37.0031 11.083 37.001 11.314 37.0448C11.545 37.0887 11.765 37.1776 11.9615 37.3065C12.6517 37.7574 12.9189 38.6021 12.6231 39.4054C12.4727 39.8226 12.2236 40.6208 12.2781 41.2738C12.3896 42.5979 13.2043 43.1317 13.9386 43.1861C14.6495 43.212 15.1477 42.8156 15.2748 42.5228C15.3501 42.3491 15.2878 42.2455 15.2463 42.1988C15.1347 42.0615 14.9531 42.103 14.7792 42.1444C14.6438 42.1809 14.5044 42.2001 14.3641 42.2014C14.2151 42.2056 14.0674 42.1727 13.9343 42.1058C13.8011 42.0388 13.6867 41.9399 13.6013 41.8179C13.3989 41.507 13.4119 41.0405 13.635 40.5119C13.6636 40.4394 13.6999 40.3616 13.7388 40.2735C14.0969 39.4754 14.6936 38.1357 14.0242 36.8608C13.5183 35.902 12.6932 35.3008 11.7047 35.1764C11.586 35.1605 11.4664 35.1519 11.3466 35.1505L11.3492 35.1531Z" fill="white"/>
<path d="M291.168 39.2006L291.131 39.1337L291.057 38.9015L291.091 38.8327C293.39 34.0972 296.022 31.3831 298.314 31.3831H298.338C300.925 31.4024 302.714 33.7308 302.689 37.0431C302.672 39.2533 301.697 40.5263 300.884 41.205C299.955 41.9797 298.719 42.4224 297.49 42.4224C294.462 42.3993 292.384 40.6582 291.168 39.2006ZM290.54 57.076C290.171 57.5681 289.656 57.8172 289.011 57.8172C288.271 57.8116 287.715 57.5535 287.336 57.0482C286.276 55.6306 286.574 52.3013 288.305 46.2565C288.51 45.5345 288.736 44.8083 288.972 44.0981L289.173 43.4948L289.349 44.1052C291.366 51.083 291.766 55.4474 290.54 57.076ZM216.457 24.9342C216.525 23.4271 216.651 21.96 216.831 20.573C217.998 11.6328 220.435 5.38921 222.758 5.38921H222.768C223.876 5.39722 224.431 6.23506 224.419 7.87778C224.388 11.9144 221.83 17.6936 216.817 25.0547L216.425 25.6312L216.457 24.9342ZM297.752 45.3273L297.834 45.3287C302.712 45.3287 306.146 41.9482 306.182 37.1104C306.201 34.7156 305.509 32.5233 304.234 30.9389C302.886 29.2623 300.999 28.3675 298.776 28.3505H298.732C295.732 28.3505 292.946 30.6262 290.215 35.3095L289.998 35.6829L289.858 35.2751C289.318 33.7092 288.761 32.1493 288.187 30.5956C287.93 29.8976 287.816 29.584 287.789 29.4822C287.659 28.976 287.225 28.6609 286.658 28.6609C286.309 28.6609 285.938 28.7796 285.587 29.0028C285.239 29.2242 285.045 29.495 284.975 29.8562L284.957 29.9104C282.224 38.4334 279.971 42.5736 278.062 42.5736C277.784 42.5712 277.567 42.4803 277.405 42.3004C276.905 41.7475 277.028 40.4331 277.198 38.6133C277.322 37.2767 277.465 35.763 277.405 34.1575C277.292 31.0699 275.604 29.2162 272.888 29.1954C269.437 29.1945 267.199 32.8689 266.169 35.0603L265.861 35.7145L265.794 34.9949C265.536 32.2835 264.626 29.0447 261.753 29.0231C258.402 29.0231 255.849 32.9556 254.291 36.2566L253.874 37.141L253.916 36.1638C254.101 31.7622 254.253 29.1629 254.367 28.4428C254.481 27.7194 254.421 27.2339 254.184 26.956C253.961 26.6956 253.538 26.5995 252.917 26.6381C251.845 26.7064 251.296 27.3591 250.47 29.5477C249.114 33.1426 245.663 41.5055 242.908 41.5055C242.361 41.5017 241.928 41.3152 241.611 40.9521C240.456 39.6273 240.918 36.0461 241.557 31.0901L241.606 30.7152C241.908 28.3689 241.392 27.8683 240.119 27.6337C239.991 27.6096 239.861 27.5968 239.731 27.5956C238.713 27.5956 238.237 28.5705 237.287 31.279C235.595 36.0993 233.42 41.1692 230.875 41.1692C230.782 41.1692 230.69 41.1617 230.597 41.147C229.248 40.9172 229.278 38.9175 229.316 36.3842C229.335 35.0142 229.359 33.4609 229.147 32.0584C228.767 29.5425 227.284 27.9705 225.277 27.9554C221.271 27.9554 218.569 33.0851 217.313 36.1431L217.028 36.8354L216.934 36.0922C216.687 34.1295 216.524 32.157 216.447 30.1802L216.444 30.1063L216.49 30.0488C223.987 20.6117 227.35 13.8015 227.395 7.96679C227.424 4.23959 225.703 2.00063 222.795 1.97803C220.668 1.97803 215.61 3.74932 213.853 20.1614C213.524 23.2426 213.347 26.338 213.321 29.4366L213.32 29.4973L213.286 29.5468C209.856 34.5117 202.535 43.0507 195.369 43.0507C188.893 43.0507 183.727 37.8117 183.727 28.5648C183.727 16.1681 192.502 8.5569 199.106 8.5569L199.16 8.55738C200.595 8.56821 201.826 8.969 202.719 9.71641C203.646 10.4921 204.131 11.58 204.122 12.861C204.107 14.5725 203.551 15.4523 203.012 16.3019C202.871 16.5199 202.736 16.7423 202.609 16.9688C202.482 17.201 202.365 17.5386 202.535 17.8273C202.709 18.1231 203.152 18.3096 203.692 18.3129C205.264 18.3129 207.642 16.0381 207.667 12.6095C207.695 9.02127 204.672 5.32469 199.28 5.32469C191.119 5.32469 180.129 14.2895 180.129 28.8187C180.129 39.0965 186.573 46.2 195.302 46.2C201.496 46.2 207.624 41.7654 213.051 34.3572L213.383 33.9084L213.407 34.4664C213.522 37.1778 213.719 39.3145 213.863 40.8748C213.956 41.878 214.023 42.6023 214.019 43.0022C214.013 43.8791 214.156 44.4866 214.458 44.8601C214.76 45.2341 215.24 45.4107 215.966 45.4159C217.186 45.4159 217.429 44.5846 217.911 42.535L218.051 41.9496C218.65 39.4657 220.866 31.359 224.198 31.359C224.742 31.3637 225.162 31.5248 225.46 31.8408C226.196 32.6212 226.115 34.223 226.022 36.0785C225.964 37.2366 225.904 38.4324 226.02 39.5971C226.334 42.7417 227.692 44.2794 230.171 44.2973C232.717 44.2987 235.374 41.5563 236.775 39.0079L237.04 38.5266L237.143 39.0663C237.402 40.4298 238.56 44.9063 242.183 44.9063C245.468 44.9063 248.285 41.448 251.373 34.3303L251.777 33.4011L251.752 34.4151C251.686 37.1118 251.54 40.4058 251.539 42.9513C251.538 44.9209 251.737 45.6735 252.648 45.6735C252.713 45.6735 252.782 45.6819 252.854 45.6819C253.728 45.6819 254.32 45.1615 254.616 44.1306C256.94 36.0315 258.948 32.259 260.938 32.259C262.886 32.2746 263.069 35.8365 263.225 42.1318L263.236 42.5736C263.283 44.7749 263.362 45.7493 264.73 45.7597C265.768 45.7597 266.026 44.944 266.563 42.9367C266.665 42.5538 266.777 42.1342 266.908 41.6807C268.784 35.1715 270.34 32.5157 272.276 32.5157C273.934 32.528 274.026 34.2371 274.057 34.7985C274.12 36.0013 273.996 37.2607 273.877 38.4757C273.766 39.6061 273.651 40.774 273.695 41.862C273.796 44.408 275.19 45.8209 277.62 45.8393C280.774 45.8393 283.622 42.1502 286.115 34.8771L286.288 34.3694L286.486 34.8677C286.938 36.0107 287.527 37.5583 288.073 39.4045L288.094 39.4751L288.064 39.5415C285.65 44.903 283.946 50.8753 283.922 54.0651C283.889 58.2675 285.791 60.9977 288.766 61.0212H288.818C290.436 61.0212 294.208 60.3713 294.282 54.358C294.311 51.8935 293.729 48.4088 292.552 43.9987L292.418 43.4934L292.852 43.7835C294.354 44.7796 296.048 45.3132 297.752 45.3273ZM138.895 32.9848C137.833 37.2574 135.797 42.413 132.126 42.7083C132.023 42.7154 131.923 42.721 131.827 42.721C130.305 42.721 129.451 41.7235 129.29 39.7572C129.087 37.296 130.149 34.4151 131.992 32.414C133.166 31.1396 134.49 30.4383 135.719 30.4383H135.744C137.297 30.4501 138.384 31.6967 138.884 32.859L138.911 32.9189L138.895 32.9848ZM172.554 9.09333L172.607 9.09239C172.953 9.09239 173.257 9.26665 173.511 9.60951C174.716 11.2386 174.733 17.1816 172.662 23.9456C171.477 27.8099 169.885 31.4617 168.058 34.5037L167.767 34.9878L167.693 34.4274C167.477 32.7917 167.371 31.0892 167.297 29.6395C166.768 19.4173 169.86 9.23321 172.554 9.09333ZM144.601 44.5455C148.147 44.2606 150.962 39.4365 152.007 37.3761L152.277 36.8443L152.379 37.4316C152.88 40.3304 154.457 45.2016 159.39 45.2392H159.431C161.565 45.2392 163.987 43.9347 166.433 41.4668L166.612 41.285L166.743 41.5031C168.39 44.2582 170.6 45.7215 172.951 45.6019C176.415 45.422 178.516 42.9678 178.702 41.2634C178.749 40.8287 178.634 40.4204 178.385 40.1439C178.074 39.7968 177.622 39.7558 177.289 40.0742L177.132 40.224C176.325 40.9982 174.823 42.4408 173.187 42.5265C171.183 42.6245 169.7 41.4263 168.742 38.9538L168.703 38.8497L168.77 38.7621C174.28 31.555 178.147 20.5566 177.766 13.1813C177.59 9.76681 176.597 5.69769 172.869 5.69769C172.778 5.69769 172.685 5.69957 172.591 5.70476C171.162 5.7787 169.864 6.45877 168.73 7.72707C165.271 11.5974 163.461 21.1236 164.117 31.9962C164.254 34.2555 164.646 36.3668 165.283 38.2695L165.319 38.3754L165.246 38.4612C163.202 40.8508 161.184 42.1676 159.565 42.1676C155.67 42.1676 155.801 35.6373 156.11 30.2202C156.176 29.0523 156.275 28.3086 155.929 27.8857C155.682 27.5833 155.27 27.434 154.668 27.4289L154.597 27.4284C153.212 27.4284 152.921 27.7133 152.212 29.7705C150.737 34.0445 147.825 41.2163 144.895 41.2163C144.082 41.2092 143.462 40.9314 143.039 40.3907C141.617 38.5761 142.697 34.0525 143.563 30.4166C143.719 29.7629 143.868 29.1356 143.997 28.5545C144.187 27.6926 144.128 27.0634 143.824 26.6824C143.519 26.3037 142.908 26.1492 142.103 26.2133C140.848 26.3136 140.046 26.8392 139.659 29.2251L139.581 29.721L139.289 29.3683C138.741 28.5596 137.672 27.5956 135.69 27.5956C135.515 27.5956 135.336 27.6026 135.15 27.6172C133.034 27.791 130.624 29.2656 128.86 31.4655C126.801 34.035 125.818 37.2875 126.091 40.6219C126.106 40.7985 126.132 40.9681 126.157 41.1362L126.171 41.2295L126.107 41.3001C124.875 42.6424 123.62 43.3229 122.376 43.3229C120.457 43.3078 119.355 41.8818 119.355 39.5062C119.355 35.5054 122.066 23.4483 122.066 19.0829C122.066 14.4373 119.996 11.9083 116.401 11.881L116.347 11.8805C111.099 11.8805 107.008 17.8368 103.093 30.0898C102.722 31.2663 102.361 32.4461 102.01 33.6291L101.461 35.4724L101.624 33.5565C101.988 29.2877 102.238 25.1348 102.366 21.2126C102.561 15.2903 101.761 11.4788 99.9192 9.561C98.9254 8.52676 97.611 8.01718 95.8986 8.00352H95.8533C89.4304 8.00352 86.354 18.8361 84.1137 26.4794C83.4378 28.7871 82.1045 33.9912 81.2144 37.5489L81.7419 36.6922C82.137 32.2119 83.2819 20.9894 83.2066 14.9017C83.126 8.37087 80.9507 5.44243 76.1539 5.40569H76.095C73.5325 5.40569 71.7551 6.67871 70.7148 7.74732C69.0452 9.46115 68.0044 11.9676 68.0618 14.1317C68.0976 15.4471 68.9049 16.6184 69.5171 16.6184C69.9155 16.6184 70.1364 16.0862 70.232 15.7697C71.7156 10.8637 73.6361 8.47825 76.1021 8.47825C77.1241 8.48579 77.8847 8.78768 78.455 9.39946C80.3803 11.4651 80.0304 17.0437 79.3951 27.1708C79.1902 30.4345 78.958 34.1335 78.7621 38.3401C78.7282 39.0621 78.6835 39.7582 78.6411 40.4218C78.4532 43.3427 78.3048 45.6513 79.4125 45.8237C80.8546 46.0484 81.7932 45.462 82.2727 44.0355C82.9848 41.918 84.5818 36.1318 87.6722 25.5572C90.6374 15.4094 92.8773 11.718 95.7436 11.718C99.0545 11.718 99.3013 17.4035 98.6947 29.4003C98.5651 31.9435 98.3923 34.8239 98.2595 37.9591C98.2406 38.4004 98.2199 38.8266 98.1997 39.2382C98.0725 41.8342 97.9717 43.8824 98.713 44.668C98.9438 44.9124 99.2593 45.0334 99.6752 45.0353C101.111 45.0353 101.542 43.7778 102.257 41.6915C102.384 41.3237 102.517 40.9304 102.667 40.5183C107.585 26.9508 111.222 15.1791 116.103 15.1791C117.568 15.1791 118.706 16.3683 118.706 18.6878C118.706 24.0417 116.089 34.3859 116.089 39.6301C116.089 41.5092 116.629 43.1962 117.651 44.3816C118.7 45.5981 120.167 46.2476 121.895 46.2612H121.932C123.565 46.2612 125.268 45.4677 126.991 43.9031L127.153 43.7571L127.283 43.9323C128.418 45.4582 130.25 46.2777 132.227 46.1251C135.261 45.8887 137.806 43.1882 138.753 40.6403L138.938 40.1425L139.124 40.6403C139.826 42.5312 141.348 44.8083 144.601 44.5455Z" fill="white"/>
<path d="M155.92 17.3232C154.565 17.3232 153.47 18.3909 153.461 19.703C153.45 21.025 154.537 22.1087 155.884 22.1195L155.902 22.3159V22.1195C157.238 22.1195 158.333 21.0528 158.343 19.7407C158.353 18.4182 157.266 17.3341 155.92 17.3232ZM241.116 17.3232C239.761 17.3232 238.667 18.3909 238.656 19.703C238.645 21.025 239.732 22.1087 241.079 22.1195L241.098 22.3159V22.1195C242.434 22.1195 243.529 21.0528 243.539 19.7407C243.548 18.4182 242.462 17.3341 241.116 17.3232Z" fill="white"/>
<path d="M307.461 45.7073C307.274 45.7077 307.089 45.6713 306.916 45.6C306.744 45.5287 306.587 45.4241 306.454 45.292C306.322 45.16 306.218 45.0031 306.146 44.8304C306.075 44.6578 306.038 44.4728 306.038 44.2859C306.038 44.099 306.075 43.9138 306.146 43.7411C306.217 43.5683 306.322 43.4113 306.454 43.279C306.586 43.1468 306.743 43.042 306.916 42.9705C307.089 42.8991 307.274 42.8624 307.461 42.8627C307.648 42.8624 307.833 42.899 308.006 42.9704C308.179 43.0418 308.336 43.1466 308.468 43.2789C308.6 43.4111 308.705 43.5681 308.776 43.7409C308.848 43.9137 308.884 44.0989 308.884 44.2859C308.884 44.4728 308.848 44.6579 308.776 44.8305C308.705 45.0032 308.6 45.16 308.467 45.2921C308.335 45.4241 308.178 45.5288 308.006 45.6C307.833 45.6713 307.648 45.7077 307.461 45.7073ZM307.461 42.6206C307.02 42.6215 306.597 42.7973 306.285 43.1094C305.973 43.4216 305.797 43.8447 305.797 44.2859C305.798 44.7269 305.973 45.1496 306.285 45.4613C306.597 45.7731 307.02 45.9484 307.461 45.9489C307.902 45.9485 308.325 45.7733 308.637 45.4616C308.949 45.1498 309.125 44.7271 309.126 44.2859C309.126 43.8444 308.95 43.4211 308.638 43.1089C308.326 42.7967 307.902 42.6211 307.461 42.6206Z" fill="white"/>
<path d="M307.408 44.1817H307.1V43.5341H307.528C307.734 43.5341 307.958 43.6052 307.958 43.8511C307.958 44.1694 307.672 44.1817 307.408 44.1817ZM308.199 43.8511C308.199 43.5073 308.03 43.3198 307.595 43.3198H306.857V45.2371H307.1V44.3979H307.443L308.016 45.2371H308.289L307.716 44.3979C307.976 44.3526 308.199 44.2052 308.199 43.8511Z" fill="white"/>
</svg>
