<svg width="41" height="65" viewBox="0 0 41 65" fill="none" xmlns="http://www.w3.org/2000/svg"><path fill-rule="evenodd" clip-rule="evenodd" d="M20.5 0C31.8218 0 41 8.9543 41 20V64.0625C41 64.5803 40.5698 65 40.0391 65H30.75C13.7672 65 0 51.5685 0 35V20C0 8.9543 9.17816 0 20.5 0ZM3.20312 31.0333C2.88863 31.0333 2.62706 31.2544 2.57282 31.5459L2.5625 31.6583V35L2.56628 35.4548C2.81271 50.2831 15.0889 62.2584 30.2885 62.4964L30.75 62.5H38.0104C38.2168 62.5 38.389 62.3572 38.4288 62.1673L38.4375 62.0833V60.4167C38.4375 60.2153 38.2911 60.0473 38.0965 60.0085L38.0104 60H30.75L30.3086 59.9964C16.5083 59.769 5.36435 48.8983 5.1288 35.4352L5.125 35L5.1259 33.429C5.12596 33.332 5.1029 33.2368 5.0591 33.1507L5.00848 33.068L3.72633 31.2976C3.60627 31.1318 3.41118 31.0333 3.20312 31.0333ZM8.36453 36.2259C8.01172 36.2515 7.74696 36.5513 7.77314 36.8955C7.79173 37.1395 7.8108 37.3471 7.83034 37.5183C9.09775 48.6206 18.6455 57.2838 30.3115 57.496L30.75 57.5H38.0104C38.2168 57.5 38.389 57.3572 38.4288 57.1673L38.4375 57.0833V55.4167C38.4375 55.2153 38.2911 55.0473 38.0965 55.0085L38.0104 55H30.75L30.3466 54.9962C20.5279 54.8113 12.4 47.8916 10.6148 38.7757C10.5766 38.5805 10.5177 38.2152 10.4382 37.6799C10.4175 37.5407 10.3496 37.4135 10.2469 37.3177L10.1635 37.2521L8.77133 36.3318C8.65182 36.2528 8.50848 36.2155 8.36453 36.2259ZM14.0581 38.9899L13.9413 39.0099C13.5999 39.1007 13.3985 39.4443 13.4917 39.7773C13.5275 39.9055 13.5605 40.0179 13.5906 40.1144C15.793 47.1562 22.4246 52.3131 30.3182 52.495L30.75 52.5H38.0104C38.2168 52.5 38.389 52.3572 38.4288 52.1673L38.4375 52.0833V50.4167C38.4375 50.2153 38.2911 50.0473 38.0965 50.0085L38.0104 50H30.75L30.3593 49.9953C24.1605 49.8444 18.8727 46.1143 16.5854 40.8435C16.4936 40.6321 16.3649 40.2966 16.1992 39.8369C16.1448 39.6857 16.0335 39.5623 15.8905 39.4897L15.7776 39.4452L14.2925 39.0139L14.1762 38.9913L14.0581 38.9899ZM20.009 39.9489C19.9058 39.9484 19.8041 39.9722 19.7124 40.0183C19.3978 40.1764 19.2742 40.5534 19.4364 40.8602C19.5279 41.0335 19.6093 41.1797 19.6807 41.2988C21.8377 44.899 25.7872 47.3524 30.335 47.4936L30.75 47.5H38.0104C38.2168 47.5 38.389 47.3572 38.4288 47.1673L38.4375 47.0833V45.4167C38.4375 45.2153 38.2911 45.0473 38.0965 45.0085L38.0104 45H30.75L30.4307 44.9952C27.3271 44.9026 24.5706 43.4639 22.7538 41.2572C22.5674 41.0309 22.3267 40.693 22.0315 40.2437C21.9338 40.0951 21.7774 39.9951 21.6023 39.9653L21.4953 39.9559L20.009 39.9489ZM27.2638 38.883L27.1517 38.9035L25.6728 39.3099C25.5687 39.3385 25.4737 39.3924 25.3967 39.4665C25.1448 39.7089 25.1419 40.1046 25.3904 40.3504C25.6319 40.5894 25.8417 40.7767 26.0197 40.9125C27.2309 41.8361 28.7332 42.4133 30.37 42.491L30.75 42.5H38.0104C38.2168 42.5 38.389 42.3572 38.4288 42.1673L38.4375 42.0833V40.4167C38.4375 40.2153 38.2911 40.0473 38.0965 40.0085L38.0104 40H30.75L30.4942 39.9939C29.8715 39.964 29.278 39.8257 28.7332 39.5978C28.4691 39.4873 28.1221 39.2856 27.6923 38.9927C27.5664 38.9069 27.4142 38.8688 27.2638 38.883ZM3.96519 13.4455L3.84375 13.75L3.84407 13.4915C3.01735 15.5034 2.5625 17.6999 2.5625 20C2.5625 29.665 10.5934 37.5 20.5 37.5C30.4066 37.5 38.4375 29.665 38.4375 20C38.4375 17.8916 38.0553 15.8702 37.3548 13.9983L37.1559 13.4915L37.1562 13.75C33.5867 4.46336 21.3542 8.75 21.3542 16.25C21.3542 17.5 19.6458 17.5 19.6458 16.25C19.6458 8.82732 7.93279 3.85336 3.96519 13.4455ZM38.0104 35.0001L34.2622 35.0012C34.1628 35.0012 34.0652 35.0238 33.977 35.0666L33.8922 35.1161L31.7389 36.6038C31.605 36.6963 31.5254 36.8465 31.5254 37.0065C31.5254 37.245 31.6988 37.444 31.9293 37.49L32.0312 37.5H38.0104C38.2168 37.5 38.389 37.3572 38.4288 37.1673L38.4375 37.0833V35.4167L38.4289 35.3326C38.389 35.1427 38.2168 35 38.0104 35.0001ZM11.5312 12.5C13.6541 12.5 15.375 14.1789 15.375 16.25C15.375 18.3211 13.6541 20 11.5312 20C9.40841 20 7.6875 18.3211 7.6875 16.25C7.6875 14.1789 9.40841 12.5 11.5312 12.5ZM29.4688 12.5C31.5916 12.5 33.3125 14.1789 33.3125 16.25C33.3125 18.3211 31.5916 20 29.4688 20C27.3459 20 25.625 18.3211 25.625 16.25C25.625 14.1789 27.3459 12.5 29.4688 12.5Z" fill="white"/></svg>