<svg width="249" height="33" viewBox="0 0 249 33" fill="none" xmlns="http://www.w3.org/2000/svg">
<path d="M241.807 10.2319C246.419 10.2319 248.868 13.5463 248.868 17.8695C248.868 18.3018 248.724 19.3105 248.724 19.3105H237.628C237.916 22.1926 240.078 23.6336 242.384 23.6336C244.978 23.6336 246.851 21.9044 246.851 21.9044L248.58 24.6424C248.58 24.6424 246.13 27.0921 242.095 27.0921C236.764 27.0921 233.449 23.2013 233.449 18.7341C233.737 13.6904 237.052 10.2319 241.807 10.2319ZM244.833 16.5725C244.833 14.6992 243.392 13.4022 241.807 13.4022C239.79 13.4022 238.349 14.6992 237.916 16.5725H244.833Z" fill="white"/>
<path d="M91.2184 10.2319C95.8298 10.2319 98.2795 13.5463 98.2795 17.8695C98.2795 18.3018 98.1354 19.3105 98.1354 19.3105H87.0394C87.3276 22.1926 89.4892 23.6336 91.7948 23.6336C94.3887 23.6336 96.2621 21.9044 96.2621 21.9044L97.9913 24.6424C97.9913 24.6424 95.5415 27.0921 91.5066 27.0921C86.1748 27.0921 82.8604 23.2013 82.8604 18.7341C83.1486 13.6904 86.463 10.2319 91.2184 10.2319ZM94.2446 16.5725C94.2446 14.6992 92.8036 13.4022 91.2184 13.4022C89.201 13.4022 87.7599 14.6992 87.3276 16.5725H94.2446Z" fill="white"/>
<path d="M137.332 10.2319C141.943 10.2319 144.393 13.5463 144.393 17.8695C144.393 18.3018 144.249 19.3105 144.249 19.3105H133.153C133.441 22.1926 135.602 23.6336 137.908 23.6336C140.502 23.6336 142.375 21.9044 142.375 21.9044L144.105 24.6424C144.105 24.6424 141.655 27.0921 137.62 27.0921C132.288 27.0921 128.974 23.2013 128.974 18.7341C129.262 13.6904 132.576 10.2319 137.332 10.2319ZM140.358 16.5725C140.358 14.6992 138.917 13.4022 137.332 13.4022C135.314 13.4022 133.873 14.6992 133.441 16.5725H140.358Z" fill="white"/>
<path d="M201.025 14.6992C201.025 14.2669 200.737 13.9786 200.305 13.9786H199.008V10.6642H202.755C204.196 10.6642 204.916 11.3848 204.916 12.3935V12.8258C204.916 13.114 204.916 13.5463 204.916 13.5463C205.637 12.2494 207.366 10.2319 210.536 10.2319C214.139 10.2319 216.156 12.1053 216.156 16.2843V22.4808C216.156 22.9131 216.444 23.2013 216.877 23.2013H218.174V26.5157H214.427C212.986 26.5157 212.265 25.9393 212.265 24.3542V17.0048C212.265 14.9874 211.689 13.6904 209.816 13.6904C207.654 13.6904 206.069 14.9874 205.493 17.0048C205.204 17.7254 205.204 18.4459 205.204 19.1664V26.5157H201.313V14.6992H201.025Z" fill="white"/>
<path d="M189.353 10.2319C194.252 10.2319 198.143 13.6904 198.143 18.59C198.143 23.4895 194.252 26.948 189.353 26.948C184.453 26.948 180.562 23.4895 180.562 18.59C180.562 13.8345 184.453 10.2319 189.353 10.2319ZM189.353 23.6336C191.947 23.6336 194.108 21.6162 194.108 18.59C194.108 15.7079 191.947 13.5463 189.353 13.5463C186.759 13.5463 184.597 15.5638 184.597 18.59C184.597 21.6162 186.759 23.6336 189.353 23.6336Z" fill="white"/>
<path d="M178.69 18.7342C178.69 23.6337 175.952 27.0922 171.629 27.0922C168.17 27.0922 166.873 24.7865 166.873 24.7865C166.873 24.7865 166.873 25.363 166.873 26.2276V33.0005H162.694V14.6992C162.694 14.2669 162.406 13.9787 161.974 13.9787H160.677V10.6643H164.135C165.576 10.6643 166.153 11.2407 166.153 12.1054C166.153 12.3936 166.153 12.6818 166.153 12.6818C166.153 12.6818 167.45 10.3761 171.052 10.3761C175.664 10.232 178.69 13.5464 178.69 18.7342ZM170.62 23.6337C172.926 23.6337 174.655 21.6162 174.655 18.5901C174.655 15.4198 172.782 13.6905 170.62 13.6905C167.882 13.6905 166.585 16.1403 166.585 18.5901C166.585 22.1927 168.603 23.6337 170.62 23.6337Z" fill="white"/>
<path d="M148.428 21.6156C148.428 21.6156 150.445 23.9213 153.183 23.9213C154.48 23.9213 155.345 23.489 155.345 22.3362C155.345 20.0305 146.842 20.1746 146.842 14.9868C146.842 11.8165 149.725 10.3755 153.039 10.3755C155.201 10.3755 158.659 11.096 158.659 13.6899V15.4191H155.201V14.6986C155.201 13.9781 154.048 13.5458 153.183 13.5458C151.742 13.5458 150.733 13.9781 150.733 14.9868C150.733 17.4366 159.235 17.0043 159.235 22.3362C159.235 25.3623 156.497 27.2357 153.039 27.2357C148.716 27.2357 146.41 24.3536 146.41 24.3536L148.428 21.6156Z" fill="white"/>
<path d="M221.344 21.6156C221.344 21.6156 223.361 23.9213 226.099 23.9213C227.252 23.9213 228.261 23.489 228.261 22.3362C228.261 20.0305 219.758 20.1746 219.758 14.9868C219.758 11.8165 222.641 10.3755 225.955 10.3755C228.117 10.3755 231.575 11.096 231.575 13.6899V15.4191H228.117V14.6986C228.117 13.9781 226.964 13.5458 226.099 13.5458C224.658 13.5458 223.649 13.9781 223.649 14.9868C223.649 17.4366 232.151 17.0043 232.151 22.3362C232.151 25.3623 229.558 27.2357 225.955 27.2357C221.488 27.2357 219.326 24.3536 219.326 24.3536L221.344 21.6156Z" fill="white"/>
<path d="M108.799 23.3451C107.646 23.3451 105.629 22.9128 105.629 20.3189V13.8342H109.375V12.3932C109.375 11.2404 108.799 10.664 107.646 10.664H106.637H105.629V6.34082H101.738V10.664H99.5762V13.8342H101.594V20.7513C101.594 26.0831 106.061 26.8036 108.222 26.8036C108.943 26.8036 109.375 26.6595 109.375 26.6595V23.201C109.519 23.201 109.231 23.3451 108.799 23.3451Z" fill="white"/>
<path d="M71.3315 4.03516C76.8075 4.03516 79.4014 6.91724 79.4014 6.91724L77.0957 9.79933C77.0957 9.79933 74.79 7.78187 71.3315 7.78187C67.4407 7.78187 64.1263 10.8081 64.1263 15.4194C64.1263 20.319 67.4407 23.3451 71.4756 23.3451C75.0782 23.3451 77.0957 21.0395 77.0957 21.0395V19.3102C77.0957 18.8779 76.8075 18.5897 76.3752 18.5897H75.0782V14.9871H78.6808C80.1219 14.9871 80.8424 15.5635 80.8424 17.1487V26.6595H77.3839V25.6508C77.3839 25.2185 77.3839 24.6421 77.3839 24.6421C77.3839 24.6421 74.9341 27.0919 70.7551 27.0919C64.8468 27.0919 59.9473 22.6246 59.9473 15.4194C60.0914 8.93471 64.8468 4.03516 71.3315 4.03516Z" fill="white"/>
<path d="M111.826 4.32324H119.751C123.786 4.32324 126.668 6.77302 126.668 11.0961C126.668 15.1311 123.931 16.7162 122.922 17.0044C122.922 17.0044 123.642 17.2926 124.075 18.1573L126.236 22.4804C126.524 23.2009 127.101 23.2009 127.821 23.2009H128.254V26.6594H126.092C124.363 26.6594 123.642 26.3712 122.922 24.9302L120.04 19.3101C119.607 18.4455 119.031 18.3014 117.878 18.3014H115.861V26.6594H111.682V4.32324H111.826ZM119.175 14.8429C121.193 14.8429 122.489 13.5459 122.489 11.3844C122.489 9.22279 121.193 7.92585 119.319 7.92585H116.005V14.8429H119.175Z" fill="white"/>
<path d="M24.4977 24.3536C20.0305 24.3536 15.8515 22.7685 12.393 20.3187C8.06985 17.1484 5.47597 12.2489 4.75544 7.92574C4.75544 7.63753 4.61134 7.20522 4.61134 7.06111C4.46723 5.90828 5.33186 4.46724 6.7729 4.46724C7.20522 4.46724 7.34932 4.46724 7.78164 4.46724C8.79037 8.93447 11.2401 12.1048 13.6899 14.1222C17.0043 16.8602 20.8951 17.8689 24.3536 17.8689C33.5763 18.013 42.6549 9.7991 48.4191 0.864626C47.9868 0.432312 47.4103 0 46.8339 0H2.16157C1.00873 0 0 1.00873 0 2.16157V29.1091C0 30.2619 1.00873 31.2707 2.16157 31.2707H46.978C48.1309 31.2707 49.1396 30.406 49.1396 29.1091V6.05238C41.358 19.1659 32.7117 24.3536 24.4977 24.3536Z" fill="white"/>
</svg>
