<svg width="51" height="57" viewBox="0 0 51 57" fill="none" xmlns="http://www.w3.org/2000/svg">
<path d="M36.3546 7.24646L39.4938 10.3199L44.1622 10.6628C44.3733 10.6803 44.6287 10.8391 44.6687 11.1265L51 53.3255L33.8873 56.9733L36.3547 7.24635L36.3546 7.24646ZM32.287 57L0 51.0394L4.40559 17.553C4.61857 16.0467 4.66987 15.9963 6.29214 15.495L11.5271 13.8952C12.6478 9.21296 16.2211 0 23.7009 0C24.6779 0 25.8092 0.516897 26.7222 1.70677C30.1453 1.54969 32.0295 4.3929 33.0638 7.32494L34.7775 6.80371L32.287 57ZM25.7179 4.04945C23.8937 4.82073 21.8074 6.86494 20.6944 11.0976L26.4748 9.33386C26.4959 6.84657 26.1778 5.18522 25.7179 4.04945ZM13.8339 13.1909L18.403 11.7967C19.4881 6.20665 22.0576 3.4072 24.4547 2.29581C24.1435 2.08462 23.8182 1.97674 23.4954 1.97674C18.1229 1.97674 15.1048 8.92718 13.8339 13.1909ZM26.9935 20.4204C26.9935 20.4204 25.4998 19.5669 22.476 19.5669C14.6287 19.5669 10.7411 24.7314 10.7411 30.0682C10.7411 36.4089 17.1618 36.5809 17.1618 40.4399C17.1618 41.3728 16.4923 42.6494 14.8467 42.6494C12.328 42.6494 9.34336 40.1244 9.34336 40.1244L7.82323 45.0739C7.82323 45.0739 10.7268 48.5559 16.4048 48.5559C21.1366 48.5559 24.6459 45.0454 24.6459 39.594C24.6459 32.6648 16.8195 31.5314 16.8195 28.573C16.8195 28.0309 16.9946 25.8792 20.4741 25.8792C22.8475 25.8792 24.7837 26.8974 24.7837 26.8974L26.9935 20.4204ZM28.4368 8.73558L31.2355 7.88225C30.5265 5.74754 29.4246 3.89292 27.7702 3.68819C28.2786 5.13189 28.459 6.84935 28.4368 8.73558Z" fill="white"/>
</svg>
