<svg width="53" height="55" viewBox="0 0 53 55" fill="none" xmlns="http://www.w3.org/2000/svg">
<path d="M9.14668 9.64102C10.8559 11.028 11.5033 10.93 14.73 10.7152L45.1499 8.89856C45.7973 8.89856 45.2586 8.25407 45.0411 8.14579L39.9878 4.51083C39.0262 3.75806 37.7314 2.90904 35.2574 3.11356L5.80947 5.26189C4.73045 5.35985 4.51464 5.89779 4.94625 6.32745L9.14668 9.64102ZM10.9715 16.7047V48.5617C10.9715 50.2718 11.8261 50.9163 13.7597 50.808L47.1923 48.8831C49.1259 48.7748 49.3503 47.6027 49.3503 46.2071V14.565C49.3503 13.1677 48.8099 12.4252 47.6239 12.5335L12.6911 14.565C11.3962 14.6732 10.9733 15.3074 10.9733 16.6961L10.9715 16.7047ZM43.9724 18.4044C44.1882 19.3721 43.9724 20.3293 43.0005 20.4462L41.3914 20.7693V44.284C39.9878 45.0367 38.7033 45.4664 37.6329 45.4664C35.9065 45.4664 35.4749 44.9285 34.1887 43.3267L23.6505 26.8568V42.7905L26.986 43.5432C26.986 43.5432 26.986 45.4681 24.2979 45.4681L16.8794 45.8978C16.6636 45.4681 16.8794 44.394 17.6356 44.1877L19.5692 43.6498V22.5877L16.8811 22.3728C16.6653 21.4052 17.2057 20.0183 18.706 19.9117L26.6631 19.3738L37.6329 36.0585V21.2969L34.8361 20.9738C34.6203 19.8017 35.4749 18.9424 36.5539 18.8427L43.9724 18.4044ZM3.33721 2.37282L33.9729 0.126541C37.7314 -0.196567 38.7033 0.0182652 41.0668 1.72833L50.8506 8.57545C52.4596 9.74758 53 10.0707 53 11.3511V48.8848C53 51.2394 52.1368 52.6263 49.1328 52.8412L13.5422 54.9809C11.2944 55.0892 10.2153 54.7661 9.02756 53.2708L1.82485 43.9609C0.538649 42.2508 0 40.9704 0 39.4769V6.11606C0 4.19116 0.86322 2.58938 3.33548 2.37454L3.33721 2.37282Z" fill="white"/>
</svg>
