<svg width="28" height="29" viewBox="0 0 28 29" fill="none" xmlns="http://www.w3.org/2000/svg">
<path d="M13.9993 16.8333C15.288 16.8333 16.3327 15.7886 16.3327 14.5C16.3327 13.2113 15.288 12.1666 13.9993 12.1666C12.7107 12.1666 11.666 13.2113 11.666 14.5C11.666 15.7886 12.7107 16.8333 13.9993 16.8333Z" stroke="#56E5A1" stroke-width="2" stroke-linecap="round" stroke-linejoin="round"/>
<path d="M20.9993 13.3333C22.288 13.3333 23.3327 12.2886 23.3327 11C23.3327 9.71129 22.288 8.66663 20.9993 8.66663C19.7107 8.66663 18.666 9.71129 18.666 11C18.666 12.2886 19.7107 13.3333 20.9993 13.3333Z" stroke="#56E5A1" stroke-width="2" stroke-linecap="round" stroke-linejoin="round"/>
<path d="M17.8711 4.73615C15.8942 3.95303 13.7262 3.78853 11.6539 4.26443C9.58152 4.74032 7.70248 5.83417 6.26534 7.40127C4.82821 8.96837 3.90071 10.9349 3.60556 13.0406C3.31041 15.1463 3.66152 17.292 4.61243 19.1938C5.56334 21.0956 7.06924 22.6639 8.9309 23.6912C10.7926 24.7186 12.9223 25.1565 15.0382 24.947C17.1542 24.7376 19.1567 23.8906 20.7808 22.5183C22.4049 21.1459 23.5741 19.3128 24.1338 17.2615M23.3334 11V2.83331L25.6667 5.16665" stroke="#56E5A1" stroke-width="2" stroke-linecap="round" stroke-linejoin="round"/>
</svg>
