<svg width="1423" height="270" viewBox="0 0 1423 270" fill="none" xmlns="http://www.w3.org/2000/svg">
<path d="M703.23 221.77L689.638 219.261L686.593 205L683.592 219.261L670 221.77L683.504 225.072L686.593 238.585L689.726 225.072L703.23 221.77Z" fill="#56E5A1"/>
<path d="M362 234.482L350.971 232.465L348.5 221L346.029 232.465L335 234.482L345.993 237.136L348.5 248L351.007 237.136L362 234.482Z" fill="#56E5A1"/>
<path d="M308.032 63.9561L300.441 62.5475L298.764 54.5365L297.043 62.5475L289.453 63.9561L296.999 65.8048L298.764 73.3315L300.485 65.8048L308.032 63.9561Z" fill="white"/>
<path d="M176.579 125.419L168.988 124.011L167.312 116L165.59 124.011L158 125.419L165.546 127.268L167.312 134.795L169.033 127.268L176.579 125.419Z" fill="white"/>
<path d="M648.455 148.116L640.865 146.707L639.144 138.74L637.467 146.707L629.876 148.116L637.422 149.964L639.144 157.491L640.909 149.964L648.455 148.116Z" fill="#56E5A1"/>
<path d="M128.976 36.6245L121.386 35.216L119.665 27.205L117.988 35.216L110.397 36.6245L117.943 38.4732L119.665 46L121.386 38.4732L128.976 36.6245Z" fill="white"/>
<path d="M533.936 18.7511L526.345 17.3426L524.668 9.37558L522.947 17.3426L515.357 18.7511L522.903 20.5998L524.668 28.1707L526.389 20.5998L533.936 18.7511Z" fill="white"/>
<path d="M1381.82 9.37568L1374.23 7.96719L1372.51 0.00020518L1370.83 7.96719L1363.24 9.37568L1370.78 11.2244L1372.51 18.7512L1374.27 11.2244L1381.82 9.37568Z" fill="#56E5A1"/>
<path d="M508.075 195.566L500.485 194.201L498.764 186.19L497.087 194.201L489.496 195.566L497.043 197.414L498.764 204.985L500.529 197.414L508.075 195.566Z" fill="white"/>
<path d="M51.9761 260.58L44.3856 259.216L42.6645 251.205L40.9875 259.216L33.3971 260.58L40.9434 262.429L42.6645 270L44.4297 262.429L51.9761 260.58Z" fill="white"/>
<path d="M237.623 211.376L229.988 210.011L228.311 202L226.59 210.011L219 211.376L226.59 213.224L228.311 220.795L230.033 213.224L237.623 211.376Z" fill="#56E5A1"/>
<path d="M734.774 22.8445C731.95 22.8445 731.95 18.4428 734.774 18.4428C737.599 18.4428 737.599 22.8445 734.774 22.8445Z" fill="white"/>
<path d="M448.941 255.208C446.116 255.208 446.116 250.806 448.941 250.806C451.765 250.806 451.765 255.208 448.941 255.208Z" fill="#56E5A1"/>
<path d="M261.032 12.1047C258.208 12.1047 258.208 7.70308 261.032 7.70308C263.857 7.70308 263.857 12.1047 261.032 12.1047Z" fill="white" fill-opacity="0.3"/>
<path d="M400.617 42.3C397.793 42.3 397.793 37.8984 400.617 37.8984C403.442 37.8984 403.442 42.3 400.617 42.3Z" fill="#56E5A1"/>
<path d="M679.611 62.3276C677.625 62.3276 677.625 59.2025 679.611 59.2025C681.597 59.2025 681.597 62.3276 679.611 62.3276Z" fill="white"/>
<path d="M487.114 85.6123C485.128 85.6123 485.128 82.4871 487.114 82.4871C489.1 82.4871 489.144 85.6123 487.114 85.6123Z" fill="white"/>
<path d="M346.204 115.984C344.218 115.984 344.174 112.859 346.204 112.859C348.234 112.859 348.19 115.984 346.204 115.984Z" fill="#56E5A1"/>
<path d="M587.29 109.645C581.862 109.645 581.862 101.238 587.29 101.238C592.718 101.238 592.718 109.645 587.29 109.645Z" fill="white"/>
<path d="M366.151 130.289C360.723 130.289 360.723 121.882 366.151 121.882C371.579 121.882 371.579 130.289 366.151 130.289Z" fill="#56E5A1"/>
<path d="M861.605 58.5421L853.971 57.1336L852.294 49.1667L850.573 57.1336L842.982 58.5421L850.573 60.3908L852.294 67.9617L854.015 60.3908L861.605 58.5421Z" fill="#56E5A1"/>
<path d="M1137.47 249.607C1134.64 249.607 1134.64 245.205 1137.47 245.205C1140.29 245.205 1140.29 249.607 1137.47 249.607Z" fill="#56E5A1"/>
<path d="M814.607 6.73486C811.782 6.73486 811.782 2.33321 814.607 2.33321C817.431 2.33321 817.431 6.73486 814.607 6.73486Z" fill="white"/>
<path d="M954.147 36.9299C951.323 36.9299 951.323 32.5283 954.147 32.5283C956.972 32.5283 956.972 36.9299 954.147 36.9299Z" fill="#56E5A1"/>
<path d="M1040.64 80.2422C1038.66 80.2422 1038.66 77.117 1040.64 77.117C1042.63 77.117 1042.63 80.2422 1040.64 80.2422Z" fill="white" fill-opacity="0.3"/>
<path d="M899.735 110.614C897.749 110.614 897.705 107.489 899.735 107.489C901.765 107.489 901.721 110.614 899.735 110.614Z" fill="#56E5A1"/>
<path d="M919.681 124.919C914.253 124.919 914.253 116.512 919.681 116.512C925.109 116.512 925.109 124.919 919.681 124.919Z" fill="#56E5A1"/>
<path d="M1273.47 249.527C1268.04 249.527 1268.04 241.12 1273.47 241.12C1278.9 241.12 1278.9 249.527 1273.47 249.527Z" fill="white" fill-opacity="0.3"/>
<path d="M1200.44 27.0703C1195.01 27.0703 1195.01 18.6631 1200.44 18.6631C1205.87 18.6631 1205.87 27.0703 1200.44 27.0703Z" fill="#56E5A1"/>
<path d="M1009.98 180.952L1002.39 179.544L1000.71 171.533L998.988 179.544L991.397 180.952L998.988 182.801L1000.71 190.328L1002.43 182.801L1009.98 180.952Z" fill="white" fill-opacity="0.3"/>
<path d="M18.5791 18.4428L10.9886 17.0343L9.26761 9.06734L7.59062 17.0343L0.000155315 18.4428L7.54645 20.2916L9.26761 27.8184L10.9886 20.2916L18.5791 18.4428Z" fill="#56E5A1"/>
<path d="M840.555 129.145C837.731 129.145 837.731 124.743 840.555 124.743C843.38 124.743 843.38 129.145 840.555 129.145Z" fill="white"/>
<path d="M1333 136.624L1325.41 135.216L1323.69 127.205L1322.01 135.216L1314.38 136.624L1321.97 138.473L1323.69 146L1325.41 138.473L1333 136.624Z" fill="white" fill-opacity="0.3"/>
<path d="M526.213 207.186C523.389 207.186 523.389 202.784 526.213 202.784C529.038 202.784 529.038 207.186 526.213 207.186Z" fill="white" fill-opacity="0.3"/>
<path d="M1139.01 129.145L1131.42 127.736L1129.7 119.725L1128.02 127.736L1120.43 129.145L1127.98 130.949L1129.7 138.52L1131.42 130.949L1139.01 129.145Z" fill="#56E5A1"/>
<path d="M1248.28 129.145C1245.45 129.145 1245.45 124.743 1248.28 124.743C1251.1 124.743 1251.1 129.145 1248.28 129.145Z" fill="#56E5A1"/>
<path d="M1102.38 117.568C1100.4 117.568 1100.35 114.443 1102.38 114.443C1104.41 114.443 1104.37 117.568 1102.38 117.568Z" fill="white"/>
<path d="M277.007 175.758C271.579 175.758 271.579 167.351 277.007 167.351C282.435 167.351 282.435 175.758 277.007 175.758Z" fill="white" fill-opacity="0.3"/>
<path d="M42.468 175.758C37.0399 175.758 37.04 167.351 42.468 167.351C47.8961 167.351 47.8961 175.758 42.468 175.758Z" fill="white" fill-opacity="0.3"/>
</svg>
