<svg width="161" height="194" viewBox="0 0 161 194" fill="none" xmlns="http://www.w3.org/2000/svg">
<path d="M131.063 91.756L129.966 85.4711" stroke="white" stroke-width="1.62" stroke-linecap="round" stroke-linejoin="round"/>
<path d="M127.379 89.0194L133.656 88.2136" stroke="white" stroke-width="1.62" stroke-linecap="round" stroke-linejoin="round"/>
<path d="M68.3967 48.9193L67.6953 44.9009" stroke="white" stroke-width="1.62" stroke-linecap="round" stroke-linejoin="round"/>
<path d="M66.0363 47.1698L70.0541 46.6506" stroke="white" stroke-width="1.62" stroke-linecap="round" stroke-linejoin="round"/>
<path d="M33.334 87.1251L32.6582 83.2102" stroke="#868686" stroke-width="1.62" stroke-linecap="round" stroke-linejoin="round"/>
<path d="M31.0403 85.4238L34.9524 84.9115" stroke="#868686" stroke-width="1.62" stroke-linecap="round" stroke-linejoin="round"/>
<path d="M125.116 106.17C125.489 105.657 126.228 105.558 126.769 105.956C127.311 106.355 127.434 107.088 127.055 107.61C126.682 108.124 125.943 108.223 125.402 107.824C124.868 107.431 124.737 106.692 125.116 106.17Z" fill="white"/>
<path d="M38.5105 86.0338C38.8834 85.5199 39.6224 85.4211 40.164 85.8197C40.6974 86.2123 40.8282 86.9514 40.4496 87.4732C40.0709 87.9949 39.3377 88.0859 38.7961 87.6872C38.2627 87.2946 38.1319 86.5555 38.5105 86.0338Z" fill="white"/>
<path d="M103.307 129.621C103.68 129.107 104.419 129.008 104.961 129.407C105.494 129.8 105.625 130.539 105.246 131.06C104.874 131.574 104.135 131.673 103.593 131.275C103.06 130.882 102.929 130.143 103.307 129.621Z" fill="white"/>
<path d="M122.405 66.21C122.778 65.6962 123.517 65.5973 124.059 65.996C124.592 66.3886 124.723 67.1277 124.344 67.6494C123.971 68.1633 123.232 68.2621 122.691 67.8635C122.157 67.4709 122.026 66.7318 122.405 66.21Z" fill="white"/>
<path d="M131.264 73.5725C131.637 73.0586 132.376 72.9598 132.918 73.3584C133.451 73.751 133.582 74.4901 133.203 75.0119C132.831 75.5257 132.092 75.6246 131.55 75.2259C131.017 74.8333 130.886 74.0942 131.264 73.5725Z" fill="white"/>
<path d="M131.502 102.099C131.783 101.712 132.341 101.637 132.743 101.933C133.145 102.229 133.244 102.787 132.963 103.174C132.682 103.562 132.124 103.636 131.722 103.34C131.32 103.044 131.221 102.486 131.502 102.099Z" fill="white" fill-opacity="0.48"/>
<path d="M104.013 138.562C104.294 138.175 104.852 138.1 105.254 138.396C105.656 138.692 105.755 139.25 105.474 139.638C105.193 140.025 104.635 140.099 104.233 139.803C103.831 139.507 103.732 138.95 104.013 138.562Z" fill="white" fill-opacity="0.48"/>
<path d="M40.8186 69.7374C41.0997 69.3501 41.6574 69.2756 42.0596 69.5716C42.4617 69.8676 42.5606 70.4254 42.2795 70.8127C41.9984 71.2 41.4407 71.2745 41.0385 70.9785C40.6363 70.6825 40.5375 70.1247 40.8186 69.7374Z" fill="white" fill-opacity="0.48"/>
<path d="M73.5715 35.4693C73.8526 35.082 74.4103 35.0075 74.8125 35.3035C75.2147 35.5995 75.3135 36.1573 75.0324 36.5446C74.7514 36.9319 74.1936 37.0064 73.7914 36.7104C73.3893 36.4144 73.2904 35.8566 73.5715 35.4693Z" fill="white" fill-opacity="0.48"/>
<path d="M130.069 61.169C130.35 60.7817 130.907 60.7072 131.31 61.0032C131.712 61.2993 131.811 61.8571 131.53 62.2444C131.248 62.6317 130.691 62.7062 130.289 62.4102C129.886 62.1141 129.787 61.5563 130.069 61.169Z" fill="white" fill-opacity="0.48"/>
<path d="M99.4685 40.344C99.8414 39.8302 100.58 39.7313 101.122 40.13C101.655 40.5225 101.786 41.2616 101.408 41.7834C101.035 42.2972 100.296 42.3961 99.7541 41.9975C99.2207 41.6049 99.0899 40.8658 99.4685 40.344Z" fill="white"/>
<path d="M77.9656 44.1273C78.3385 43.6135 79.0775 43.5146 79.6191 43.9133C80.1525 44.3059 80.2833 45.045 79.9047 45.5667C79.5317 46.0806 78.7928 46.1794 78.2512 45.7808C77.7178 45.3882 77.5869 44.6491 77.9656 44.1273Z" fill="white"/>
<path d="M34.3259 76.0814C34.6989 75.5675 35.4378 75.4687 35.9794 75.8673C36.5128 76.2599 36.6437 76.999 36.265 77.5208C35.8921 78.0346 35.1531 78.1335 34.6115 77.7348C34.0781 77.3422 33.9473 76.6031 34.3259 76.0814Z" fill="white"/>
<path d="M112.596 126.857C112.969 126.343 113.708 126.244 114.25 126.643C114.783 127.036 114.914 127.775 114.536 128.296C114.163 128.81 113.424 128.909 112.882 128.51C112.349 128.118 112.218 127.379 112.596 126.857Z" fill="white"/>
<path d="M85.1531 37.9701C85.526 37.4562 86.265 37.3573 86.8066 37.756C87.34 38.1486 87.4708 38.8877 87.0922 39.4094C86.7135 39.9312 85.9803 40.0221 85.4387 39.6235C84.8971 39.2249 84.7744 38.4918 85.1531 37.9701Z" fill="white"/>
<path d="M50.4914 121.275C50.4914 121.275 32.3257 127.993 40.2152 150.672C40.2152 150.672 60.7995 152.315 64.801 131.804" fill="#CCF7FF"/>
<path d="M53.6683 124.322C53.6683 124.322 44.5734 127.144 46.6471 140.715C46.6471 140.715 58.8774 141.223 59.9774 130.388L53.66 124.316L53.6683 124.322Z" fill="#56E5A1"/>
<path d="M69.0682 132.563C60.5621 130.271 53.7422 124.918 48.2121 117.222L51.3809 104.92L79.7611 125.794L69.0763 132.569L69.0682 132.563Z" fill="white"/>
<path d="M49.9344 111.487C49.9344 111.487 56.0586 119.678 63.6665 123.977C71.2744 128.275 65.8778 130.956 65.8778 130.956L69.4931 132.32L76.6762 127.454C76.6762 127.454 60.6421 119.178 50.9568 109.292L49.956 112.245" fill="#56E5A1"/>
<path d="M69.0682 132.563C60.5621 130.271 53.7422 124.918 48.2121 117.222L51.3809 104.92L79.7611 125.794L69.0763 132.569L69.0682 132.563Z" stroke="#1D593D" stroke-width="2.42" stroke-linecap="round" stroke-linejoin="round"/>
<path d="M89.3831 53.4974C89.3831 53.4974 70.7738 65.6277 66.8698 69.9135L70.1257 71.3644L90.5515 56.9977L89.3748 53.4913L89.3831 53.4974Z" fill="#56E5A1"/>
<path d="M83.2931 75.142C86.9637 66.9508 89.2202 59.766 90.5258 54.8665C91.3098 51.9224 88.3471 49.2068 85.4548 50.2101C75.747 53.5946 56.9436 61.5938 40.1237 77.107C52.8276 69.4574 69.0554 68.5423 83.2873 75.15L83.2931 75.142Z" stroke="#1D593D" stroke-width="2.42" stroke-linecap="round" stroke-linejoin="round"/>
<path d="M117.173 73.0093C117.173 73.0093 117.834 95.4922 111.037 113.979L111.571 120.768C111.571 120.768 128.642 69.0411 117.173 73.0093Z" fill="#56E5A1"/>
<path d="M109.216 127.763C118.794 106.923 120.652 86.4696 120.914 76.1242C120.994 73.052 117.515 71.0292 114.966 72.6749C110.731 75.4066 104.609 79.7599 97.9689 85.767C108.531 97.4111 112.606 113.249 109.221 127.755L109.216 127.763Z" stroke="#1D593D" stroke-width="2.42" stroke-linecap="round" stroke-linejoin="round"/>
<path d="M63.0339 118.828C76.2185 128.364 87.89 128.305 87.89 128.305C110.996 96.5005 117.561 61.1742 119.346 46.7424C119.715 43.7553 116.558 41.4335 113.841 42.6944C100.716 48.7871 69.2534 65.8062 46.1478 97.6112C46.1478 97.6112 49.6358 108.817 62.6702 118.56C62.728 118.603 62.7859 118.645 62.8438 118.688C62.9016 118.731 62.9595 118.773 63.0173 118.816L63.0339 118.828Z" fill="white"/>
<path d="M113.14 43.4112C113.14 43.4112 117.612 41.8233 115.157 49.7712C112.697 57.7271 107.3 65.9608 102.745 63.915C102.745 63.915 112.266 69.6018 114.756 68.0563C117.247 66.5108 115.05 68.4548 116.3 66.1925C117.556 63.9223 124.943 35.7561 113.149 43.4173L113.14 43.4112Z" fill="#56E5A1"/>
<path d="M90.4235 56.1025C90.9173 57.0265 96.9499 68.5947 109.669 71.7581C109.669 71.7581 104.141 99.2265 83.3238 127.089L88.4144 128.396C88.4144 128.396 108.829 95.1779 114.094 69.9541C114.094 69.9541 102.494 66.8707 92.6201 54.1589L90.4177 56.1105L90.4235 56.1025Z" fill="#56E5A1"/>
<path d="M63.0339 118.828C76.2185 128.364 87.89 128.305 87.89 128.305C110.996 96.5005 117.561 61.1742 119.346 46.7424C119.715 43.7553 116.558 41.4335 113.841 42.6944C100.716 48.7871 69.2534 65.8062 46.1478 97.6112C46.1478 97.6112 49.6358 108.817 62.6702 118.56C62.728 118.603 62.7859 118.645 62.8438 118.688C62.9016 118.731 62.9595 118.773 63.0173 118.816L63.0339 118.828Z" stroke="#1D593D" stroke-width="2.42" stroke-linecap="round" stroke-linejoin="round"/>
<path d="M115.002 68.7077C100.491 67.7774 94.4736 53.6428 94.4736 53.6428" stroke="#1D593D" stroke-width="2.42" stroke-linecap="round" stroke-linejoin="round"/>
<path d="M52.8689 89.9716C52.8689 89.9716 43.8734 87.3701 37.1689 94.3127C37.1689 94.3127 42.3688 92.9059 47.5635 96.1344C47.5635 96.1344 50.8719 96.7601 52.8631 89.9795L52.8689 89.9716Z" fill="#56E5A1" stroke="#1D593D" stroke-width="2.42" stroke-linecap="round" stroke-linejoin="round"/>
<path d="M45.4104 110.885C45.4104 110.885 49.3658 103.674 53.7223 100.253C55.0622 99.1965 57.0616 99.4564 58.1943 100.839C59.3187 102.215 59.1441 104.189 57.7984 105.253C53.4419 108.674 45.4187 110.891 45.4187 110.891L45.4104 110.885Z" fill="#56E5A1" stroke="#1D593D" stroke-width="2.42" stroke-linecap="round" stroke-linejoin="round"/>
<path d="M92.497 118.942C92.497 118.942 97.6897 126.784 93.1579 135.326C93.1579 135.326 92.9097 129.909 88.278 125.905C88.278 125.905 86.6815 122.92 92.4913 118.95L92.497 118.942Z" fill="#56E5A1" stroke="#1D593D" stroke-width="2.42" stroke-linecap="round" stroke-linejoin="round"/>
<path d="M75.4998 132.924C75.4998 132.924 81.1304 126.944 83.0488 121.73C83.6423 120.126 82.789 118.288 81.1353 117.623C79.4899 116.963 77.6733 117.73 77.0739 119.343C75.1556 124.556 75.4915 132.918 75.4915 132.918L75.4998 132.924Z" fill="#56E5A1" stroke="#1D593D" stroke-width="2.42" stroke-linecap="round" stroke-linejoin="round"/>
<path d="M59.6569 124.731C59.6569 124.731 66.7486 120.497 70.015 116.021C71.0179 114.642 70.6726 112.663 69.2358 111.607C67.799 110.551 65.8163 110.807 64.8134 112.187C61.5528 116.655 59.6569 124.731 59.6569 124.731Z" fill="#56E5A1" stroke="#1D593D" stroke-width="2.42" stroke-linecap="round" stroke-linejoin="round"/>
<path d="M92.1837 85.4066C96.2749 81.9255 96.6306 75.6457 92.9782 71.3804C89.3259 67.115 83.0486 66.4792 78.9575 69.9602C74.8663 73.4413 74.5106 79.7211 78.1629 83.9865C81.8153 88.2519 88.0926 88.8877 92.1837 85.4066Z" fill="#56E5A1"/>
<path d="M93.2743 83.8751C96.6714 80.9835 96.9659 75.7681 93.9321 72.2263C90.8982 68.6844 85.6849 68.1573 82.2878 71.0489C78.8906 73.9405 78.5961 79.1559 81.63 82.6978C84.6638 86.2396 89.8771 86.7667 93.2743 83.8751Z" fill="white"/>
<path d="M95.3253 74.447L80.3984 76.5583L81.0141 80.259L95.9409 78.1476L95.3253 74.447Z" fill="#A8FFD6"/>
<path d="M96.0839 81.7862L81.6119 83.7149L81.2864 81.8872L96.4838 79.8622L96.0839 81.7862Z" fill="#A8FFD6"/>
<path d="M93.2743 83.8751C96.6714 80.9835 96.9659 75.7681 93.9321 72.2263C90.8982 68.6844 85.6849 68.1573 82.2878 71.0489C78.8906 73.9405 78.5961 79.1559 81.63 82.6978C84.6638 86.2396 89.8771 86.7667 93.2743 83.8751Z" stroke="#1D593D" stroke-width="2.42" stroke-linecap="round" stroke-linejoin="round"/>
<path d="M92.5143 107.56C89.4031 111.849 83.2626 112.671 78.7947 109.382C74.3269 106.092 73.2342 99.9564 76.3512 95.6598C79.4682 91.3632 85.603 90.5486 90.0708 93.8381C94.5387 97.1275 95.6313 103.263 92.5143 107.56Z" fill="#56E5A1"/>
<path d="M81.9375 107.844C85.6433 110.573 90.7433 109.896 93.3286 106.332C95.914 102.768 95.0057 97.6673 91.2998 94.9389C87.594 92.2105 82.494 92.8877 79.9087 96.4514C77.3233 100.015 78.2316 105.116 81.9375 107.844Z" fill="white"/>
<path d="M94.0636 98.4204L79.333 100.504L79.9417 104.162L94.6722 102.079L94.0636 98.4204Z" fill="#A8FFD6"/>
<path d="M94.3767 105.54L80.5225 107.565L80.2018 105.765L95.2106 103.765L94.3767 105.54Z" fill="#A8FFD6"/>
<path d="M81.9375 107.844C85.6433 110.573 90.7433 109.896 93.3286 106.332C95.914 102.768 95.0057 97.6673 91.2998 94.9389C87.594 92.2105 82.494 92.8877 79.9087 96.4514C77.3233 100.015 78.2316 105.116 81.9375 107.844Z" stroke="#1D593D" stroke-width="2.42" stroke-linecap="round" stroke-linejoin="round"/>
<path d="M79.2904 98.0182C79.2904 98.0182 68.8589 91.1009 61.918 80.9548" stroke="#1D593D" stroke-width="2.42" stroke-linecap="round" stroke-linejoin="round"/>
<path d="M94.4411 82.2615C94.4411 82.2615 100.1 87.684 107.725 88.5071" stroke="#1D593D" stroke-width="2.42" stroke-linecap="round" stroke-linejoin="round"/>
</svg>
