<svg width="25" height="25" viewBox="0 0 25 25" fill="none" xmlns="http://www.w3.org/2000/svg">
<path d="M23.7395 5.19088C23.7395 5.72413 23.4454 6.25215 22.874 6.74481C22.3027 7.23747 21.4652 7.68511 20.4094 8.06217C19.3536 8.43924 18.1002 8.73834 16.7208 8.94241C15.3413 9.14647 13.8629 9.2515 12.3698 9.2515C9.35431 9.2515 6.46237 8.82369 4.33013 8.06217C2.19788 7.30066 1 6.26782 1 5.19088C1 4.65763 1.29409 4.1296 1.86547 3.63694C2.43686 3.14428 3.27435 2.69664 4.33013 2.31958C5.3859 1.94252 6.6393 1.64341 8.01874 1.43935C9.39818 1.23528 10.8767 1.13025 12.3698 1.13025C13.8629 1.13025 15.3413 1.23528 16.7208 1.43935C18.1002 1.64341 19.3536 1.94252 20.4094 2.31958C21.4652 2.69664 22.3027 3.14428 22.874 3.63694C23.4454 4.1296 23.7395 4.65763 23.7395 5.19088Z" stroke="#56E5A1" stroke-width="1.5" stroke-linecap="round" stroke-linejoin="round"/>
<path d="M23.7395 19.8091C23.7395 20.5219 23.2142 21.2221 22.2163 21.8394C21.2184 22.4567 19.7831 22.9693 18.0546 23.3257C16.3262 23.6821 14.3656 23.8697 12.3698 23.8697C10.3739 23.8697 8.4133 23.6821 6.68488 23.3257C4.95646 22.9693 3.52116 22.4567 2.52326 21.8394C1.52535 21.2221 1 20.5219 1 19.8091" stroke="#56E5A1" stroke-width="1.5" stroke-linecap="round" stroke-linejoin="round"/>
<path d="M23.7395 14.9364C23.7395 15.6492 23.2142 16.3494 22.2163 16.9667C21.2184 17.584 19.7831 18.0966 18.0546 18.453C16.3262 18.8094 14.3656 18.997 12.3698 18.997C10.3739 18.997 8.4133 18.8094 6.68488 18.453C4.95646 18.0966 3.52116 17.584 2.52326 16.9667C1.52535 16.3494 1 15.6492 1 14.9364" stroke="#56E5A1" stroke-width="1.5" stroke-linecap="round" stroke-linejoin="round"/>
<path d="M23.7395 10.0636C23.7395 10.7764 23.2142 11.4766 22.2163 12.0939C21.2184 12.7112 19.7831 13.2238 18.0546 13.5802C16.3262 13.9366 14.3656 14.1242 12.3698 14.1242C10.3739 14.1242 8.4133 13.9366 6.68488 13.5802C4.95646 13.2238 3.52116 12.7112 2.52326 12.0939C1.52535 11.4766 1 10.7764 1 10.0636" stroke="#56E5A1" stroke-width="1.5" stroke-linecap="round" stroke-linejoin="round"/>
<path d="M1 5.19092V19.8092" stroke="#56E5A1" stroke-width="1.5" stroke-linecap="round" stroke-linejoin="round"/>
<path d="M23.7402 5.19092V19.8092" stroke="#56E5A1" stroke-width="1.5" stroke-linecap="round" stroke-linejoin="round"/>
</svg>
