<svg width="1382" height="326" viewBox="0 0 1382 326" fill="none" xmlns="http://www.w3.org/2000/svg">
<path d="M1196 96.926L1189.86 95.656L1188.49 88.4371L1187.13 95.656L1181 96.926L1187.09 98.597L1188.49 105.437L1189.9 98.597L1196 96.926Z" fill="#56E5A1"/>
<path d="M133.27 173.675L119.677 170.647L116.632 153.437L113.587 170.647L99.995 173.675L113.543 177.659L116.632 193.966L119.721 177.659L133.27 173.675Z" fill="#56E5A1"/>
<path d="M308.031 77.1789L300.441 75.4791L298.764 65.8119L297.043 75.4791L289.452 77.1789L296.999 79.4098L298.764 88.4928L300.485 79.4098L308.031 77.1789Z" fill="white"/>
<path d="M211.574 23.7513L203.984 22.0516L202.263 12.4374L200.586 22.0516L192.995 23.7513L200.542 25.9822L202.263 35.0653L204.028 25.9822L211.574 23.7513Z" fill="#56E5A1"/>
<path d="M128.977 44.1964L121.386 42.4966L119.665 32.8294L117.988 42.4966L110.398 44.1964L117.944 46.4273L119.665 55.5103L121.386 46.4273L128.977 44.1964Z" fill="white"/>
<path d="M533.934 22.6278L526.343 20.928L524.666 11.3138L522.945 20.928L515.355 22.6278L522.901 24.8587L524.666 33.9948L526.387 24.8587L533.934 22.6278Z" fill="white"/>
<path d="M824.574 147.751L816.984 146.051L815.307 136.437L813.586 146.051L805.995 147.751L813.542 149.982L815.307 159.118L817.028 149.982L824.574 147.751Z" fill="white"/>
<path d="M1381.82 11.314L1374.23 9.6143L1372.5 0.000143976L1370.83 9.6143L1363.24 11.314L1370.78 13.5449L1372.5 22.6279L1374.27 13.5449L1381.82 11.314Z" fill="#56E5A1"/>
<path d="M263.574 163.751L255.984 162.105L254.263 152.437L252.586 162.105L244.995 163.751L252.542 165.982L254.263 175.118L256.028 165.982L263.574 163.751Z" fill="white"/>
<path d="M51.9766 314.455L44.3861 312.809L42.665 303.141L40.988 312.809L33.3975 314.455L40.9439 316.686L42.665 325.822L44.4302 316.686L51.9766 314.455Z" fill="white"/>
<path d="M244.621 262.751L236.986 261.105L235.309 251.437L233.588 261.105L225.998 262.751L233.588 264.982L235.309 274.118L237.031 264.982L244.621 262.751Z" fill="#56E5A1"/>
<path d="M734.772 27.5676C731.948 27.5676 731.948 22.2559 734.772 22.2559C737.597 22.2559 737.597 27.5676 734.772 27.5676Z" fill="white"/>
<path d="M261.03 14.6073C258.206 14.6073 258.206 9.29558 261.03 9.29558C263.855 9.29558 263.855 14.6073 261.03 14.6073Z" fill="white" fill-opacity="0.3"/>
<path d="M400.616 51.0453C397.792 51.0453 397.792 45.7336 400.616 45.7336C403.44 45.7336 403.44 51.0453 400.616 51.0453Z" fill="#56E5A1"/>
<path d="M800.116 162.749C797.292 162.749 797.292 157.437 800.116 157.437C802.94 157.437 802.94 162.749 800.116 162.749Z" fill="#56E5A1"/>
<path d="M799.487 44.2084C797.501 44.2084 797.501 40.4371 799.487 40.4371C801.473 40.4371 801.473 44.2084 799.487 44.2084Z" fill="white"/>
<path d="M487.111 103.312C485.125 103.312 485.125 99.5411 487.111 99.5411C489.097 99.5411 489.141 103.312 487.111 103.312Z" fill="white"/>
<path d="M346.205 139.963C344.219 139.963 344.175 136.192 346.205 136.192C348.235 136.192 348.191 139.963 346.205 139.963Z" fill="#56E5A1"/>
<path d="M615.066 106.582C609.638 106.582 609.638 96.4371 615.066 96.4371C620.494 96.4371 620.494 106.582 615.066 106.582Z" fill="white"/>
<path d="M366.152 157.226C360.724 157.226 360.724 147.081 366.152 147.081C371.58 147.081 371.58 157.226 366.152 157.226Z" fill="#56E5A1"/>
<path d="M1120.62 35.7512L1112.99 34.0515L1111.31 24.4374L1109.59 34.0515L1102 35.7512L1109.59 37.9821L1111.31 47.1182L1113.03 37.9821L1120.62 35.7512Z" fill="#56E5A1"/>
<path d="M1137.46 301.213C1134.64 301.213 1134.64 295.901 1137.46 295.901C1140.29 295.901 1140.29 301.213 1137.46 301.213Z" fill="#56E5A1"/>
<path d="M814.604 8.12707C811.78 8.12707 811.78 2.81538 814.604 2.81538C817.429 2.81538 817.429 8.12708 814.604 8.12707Z" fill="white"/>
<path d="M954.147 44.5652C951.323 44.5652 951.323 39.2535 954.147 39.2535C956.972 39.2535 956.972 44.5652 954.147 44.5652Z" fill="#56E5A1"/>
<path d="M1040.64 96.8323C1038.66 96.8323 1038.66 93.061 1040.64 93.061C1042.63 93.061 1042.63 96.8323 1040.64 96.8323Z" fill="white" fill-opacity="0.3"/>
<path d="M899.732 133.483C897.746 133.483 897.702 129.712 899.732 129.712C901.762 129.712 901.718 133.483 899.732 133.483Z" fill="#56E5A1"/>
<path d="M1137.07 183.582C1131.64 183.582 1131.64 173.437 1137.07 173.437C1142.49 173.437 1142.49 183.582 1137.07 183.582Z" fill="#56E5A1"/>
<path d="M1273.47 301.116C1268.04 301.116 1268.04 290.971 1273.47 290.971C1278.9 290.971 1278.9 301.116 1273.47 301.116Z" fill="white" fill-opacity="0.3"/>
<path d="M1200.44 32.667C1195.01 32.667 1195.01 22.5216 1200.44 22.5216C1205.87 22.5216 1205.87 32.667 1200.44 32.667Z" fill="#56E5A1"/>
<path d="M1009.98 218.364L1002.39 216.664L1000.71 206.997L998.988 216.664L991.398 218.364L998.988 220.595L1000.71 229.678L1002.43 220.595L1009.98 218.364Z" fill="white" fill-opacity="0.3"/>
<path d="M18.5781 22.2558L10.9877 20.5561L9.26663 10.9419L7.58965 20.5561L-0.000821248 22.2558L7.54547 24.4868L9.26663 33.5697L10.9877 24.4868L18.5781 22.2558Z" fill="#56E5A1"/>
<path d="M976.116 75.7489C973.292 75.7489 973.292 70.4372 976.116 70.4372C978.94 70.4372 978.94 75.7489 976.116 75.7489Z" fill="white"/>
<path d="M1333 164.871L1325.41 163.172L1323.69 153.504L1322.01 163.172L1314.38 164.871L1321.97 167.102L1323.69 176.185L1325.41 167.102L1333 164.871Z" fill="white" fill-opacity="0.3"/>
<path d="M525.116 199.749C522.292 199.749 522.292 194.437 525.116 194.437C527.94 194.437 527.94 199.749 525.116 199.749Z" fill="white" fill-opacity="0.3"/>
<path d="M1230.57 221.804L1222.98 220.104L1221.26 210.437L1219.59 220.104L1212 221.804L1219.54 223.982L1221.26 233.118L1222.98 223.982L1230.57 221.804Z" fill="#56E5A1"/>
<path d="M1248.28 155.845C1245.45 155.845 1245.45 150.533 1248.28 150.533C1251.1 150.533 1251.1 155.845 1248.28 155.845Z" fill="#56E5A1"/>
<path d="M1102.38 141.875C1100.39 141.875 1100.35 138.104 1102.38 138.104C1104.41 138.104 1104.37 141.875 1102.38 141.875Z" fill="white"/>
<path d="M277.007 212.096C271.579 212.096 271.579 201.95 277.007 201.95C282.435 201.95 282.435 212.096 277.007 212.096Z" fill="white" fill-opacity="0.3"/>
<path d="M42.468 212.096C37.0399 212.096 37.04 201.95 42.468 201.95C47.8961 201.95 47.8961 212.096 42.468 212.096Z" fill="white" fill-opacity="0.3"/>
</svg>
