<svg width="29" height="29" viewBox="0 0 29 29" fill="none" xmlns="http://www.w3.org/2000/svg">
<path d="M20.059 7.0325C19.233 6.08954 18.7778 4.87856 18.7782 3.625H15.0444V18.6083C15.0156 19.4192 14.6733 20.1872 14.0896 20.7506C13.5058 21.3141 12.7262 21.6291 11.9148 21.6292C10.199 21.6292 8.77318 20.2275 8.77318 18.4875C8.77318 16.4092 10.779 14.8504 12.8453 15.4908V11.6725C8.67651 11.1167 5.02734 14.355 5.02734 18.4875C5.02734 22.5113 8.36234 25.375 11.9028 25.375C15.6969 25.375 18.7782 22.2938 18.7782 18.4875V10.8871C20.2922 11.9744 22.11 12.5578 23.974 12.5546V8.82083C23.974 8.82083 21.7023 8.92958 20.059 7.0325Z" fill="#56E5A1"/>
</svg>
