<svg width="29" height="29" viewBox="0 0 29 29" fill="none" xmlns="http://www.w3.org/2000/svg">
<path d="M14.7942 4.83325C15.4394 4.83688 17.0538 4.85259 18.7696 4.92146L19.3786 4.94804C21.1053 5.029 22.8308 5.16917 23.6875 5.40721C24.8294 5.72863 25.726 6.66388 26.0293 7.85046C26.5126 9.73546 26.573 13.4112 26.5803 14.3018L26.5815 14.4854V14.6957C26.573 15.5862 26.5126 19.2632 26.0293 21.147C25.7223 22.3372 24.8246 23.2736 23.6875 23.5902C22.8308 23.8283 21.1053 23.9684 19.3786 24.0494L18.7696 24.0772C17.0538 24.1448 15.4394 24.1618 14.7942 24.1642L14.5102 24.1654H14.2021C12.8367 24.1569 7.1261 24.0953 5.30877 23.5902C4.1681 23.2688 3.27031 22.3335 2.96702 21.147C2.48368 19.262 2.42327 15.5862 2.41602 14.6957V14.3018C2.42327 13.4112 2.48368 9.73425 2.96702 7.85046C3.27393 6.66025 4.17172 5.72379 5.30997 5.40842C7.1261 4.90213 12.8379 4.8405 14.2033 4.83325H14.7942ZM12.0815 10.2708V18.7291L19.3315 14.4999L12.0815 10.2708Z" fill="#56E5A1"/>
</svg>
